<svg version="1.1" xmlns="http://www.w3.org/2000/svg" xmlns:xlink="http://www.w3.org/1999/xlink" x="0px" y="0px"
	 viewBox="0 0 140.5 12.5" style="enable-background:new 0 0 140.5 12.5;" xml:space="preserve">
<path fill="#333984" d="M6.7,12.5c-1.1,0-2.2-0.2-3.1-0.7C2.7,11.3,2,10.6,1.5,9.7C1,8.8,0.7,7.9,0.7,6.8s0.3-2.1,0.8-3
	c0.5-0.9,1.3-1.6,2.1-2C4.5,1.2,5.6,1,6.7,1c0.9,0,1.8,0.2,2.5,0.5s1.4,0.8,1.9,1.4L9.8,4.1C9,3.3,8,2.8,6.8,2.8
	C6,2.8,5.3,3,4.7,3.3C4.1,3.6,3.6,4.1,3.3,4.7C3,5.3,2.8,6,2.8,6.8s0.2,1.4,0.5,2c0.3,0.6,0.8,1.1,1.4,1.4c0.6,0.3,1.3,0.5,2.1,0.5
	c1.2,0,2.2-0.4,3-1.3l1.3,1.3c-0.5,0.6-1.2,1.1-1.9,1.4C8.4,12.4,7.6,12.5,6.7,12.5z M17,12.5c-0.9,0-1.6-0.2-2.3-0.6
	C14,11.5,13.4,11,13,10.4c-0.4-0.7-0.6-1.4-0.6-2.3c0-0.8,0.2-1.6,0.6-2.3c0.4-0.7,1-1.2,1.6-1.6c0.7-0.4,1.5-0.6,2.3-0.6
	c0.9,0,1.7,0.2,2.4,0.6c0.7,0.4,1.2,0.9,1.6,1.6c0.4,0.7,0.6,1.4,0.6,2.3s-0.2,1.6-0.6,2.3c-0.4,0.7-0.9,1.2-1.6,1.6
	C18.6,12.3,17.8,12.5,17,12.5L17,12.5z M17,10.8c0.7,0,1.3-0.2,1.8-0.7c0.5-0.5,0.7-1.1,0.7-1.9c0-0.8-0.2-1.4-0.7-1.9
	c-0.5-0.5-1.1-0.7-1.8-0.7s-1.3,0.2-1.8,0.7c-0.5,0.5-0.7,1.1-0.7,1.9c0,0.8,0.2,1.4,0.7,1.9C15.6,10.5,16.2,10.8,17,10.8z
	 M28.8,3.7c1.1,0,1.9,0.3,2.6,0.9c0.7,0.6,1,1.6,1,2.8v4.9h-2V7.7c0-0.7-0.2-1.3-0.5-1.7c-0.4-0.4-0.9-0.6-1.5-0.6
	c-0.7,0-1.3,0.2-1.7,0.7c-0.4,0.4-0.6,1.1-0.6,1.9v4.3h-2V3.8h1.9v1.1c0.3-0.4,0.7-0.7,1.2-0.9S28.2,3.7,28.8,3.7z M38,12.5
	c-0.7,0-1.4-0.1-2-0.3c-0.7-0.2-1.2-0.4-1.6-0.7l0.8-1.5c0.4,0.3,0.9,0.5,1.4,0.6c0.5,0.1,1.1,0.2,1.6,0.2c1.2,0,1.8-0.3,1.8-0.9
	c0-0.3-0.2-0.5-0.5-0.6C39.2,9.1,38.7,9,38,8.9c-0.7-0.1-1.3-0.2-1.7-0.4c-0.4-0.1-0.8-0.4-1.2-0.7c-0.3-0.4-0.5-0.8-0.5-1.5
	c0-0.8,0.3-1.5,1-1.9c0.7-0.5,1.6-0.7,2.8-0.7c0.6,0,1.2,0.1,1.8,0.2c0.6,0.1,1.1,0.3,1.4,0.5L40.9,6c-0.7-0.4-1.5-0.6-2.4-0.6
	c-0.6,0-1,0.1-1.3,0.3c-0.3,0.2-0.4,0.4-0.4,0.7c0,0.3,0.2,0.6,0.5,0.7c0.3,0.1,0.8,0.2,1.5,0.4c0.7,0.1,1.2,0.2,1.7,0.4
	c0.4,0.1,0.8,0.4,1.1,0.7c0.3,0.3,0.5,0.8,0.5,1.4c0,0.8-0.3,1.4-1,1.9C40.2,12.2,39.2,12.5,38,12.5L38,12.5z M52.4,3.8v8.5h-1.9
	v-1.1c-0.3,0.4-0.7,0.7-1.2,0.9c-0.5,0.2-1,0.3-1.6,0.3c-1.1,0-2-0.3-2.7-0.9c-0.7-0.6-1-1.6-1-2.8V3.8h2v4.6c0,0.8,0.2,1.3,0.5,1.7
	c0.4,0.4,0.8,0.6,1.5,0.6c0.7,0,1.3-0.2,1.7-0.7c0.4-0.4,0.6-1.1,0.6-1.9V3.8C50.4,3.8,52.4,3.8,52.4,3.8z M55.5,0.5h2v11.9h-2
	C55.5,12.4,55.5,0.5,55.5,0.5z M100.2,1.2h2.1v11.2h-2.1C100.2,12.4,100.2,1.2,100.2,1.2z M110.7,11.9c-0.3,0.2-0.5,0.3-0.9,0.4
	c-0.3,0.1-0.7,0.1-1.1,0.1c-0.9,0-1.7-0.2-2.2-0.7c-0.5-0.5-0.8-1.2-0.8-2.1V5.5h-1.4V3.9h1.4v-2h2v2h2.3v1.6h-2.3v4.1
	c0,0.4,0.1,0.7,0.3,1c0.2,0.2,0.5,0.3,0.9,0.3c0.4,0,0.8-0.1,1.1-0.4L110.7,11.9z M116.1,3.7c1.3,0,2.2,0.3,2.9,0.9
	c0.7,0.6,1,1.5,1,2.7v5h-1.9v-1c-0.2,0.4-0.6,0.7-1.1,0.9c-0.4,0.2-1,0.3-1.6,0.3c-0.6,0-1.2-0.1-1.7-0.3c-0.5-0.2-0.9-0.5-1.1-0.9
	c-0.3-0.4-0.4-0.9-0.4-1.3c0-0.8,0.3-1.4,0.8-1.8c0.6-0.5,1.5-0.7,2.7-0.7h2.2V7.2c0-0.6-0.2-1.1-0.5-1.4c-0.4-0.3-0.9-0.5-1.6-0.5
	c-0.5,0-1,0.1-1.4,0.2c-0.5,0.2-0.8,0.4-1.2,0.6l-0.8-1.5c0.4-0.3,1-0.6,1.6-0.8C114.8,3.8,115.4,3.7,116.1,3.7z M115.9,11
	c0.5,0,0.9-0.1,1.3-0.3c0.4-0.2,0.7-0.6,0.8-1v-1h-2.1c-1.2,0-1.7,0.4-1.7,1.1c0,0.4,0.1,0.6,0.4,0.9C114.9,10.9,115.3,11,115.9,11z
	 M123.1,0.5h2v11.9h-2C123.1,12.4,123.1,0.5,123.1,0.5z M128.2,3.8h2v8.5h-2C128.2,12.4,128.2,3.8,128.2,3.8z M129.2,2.4
	c-0.3,0-0.7-0.1-0.9-0.3c-0.2-0.2-0.4-0.5-0.4-0.9c0-0.3,0.1-0.6,0.4-0.8c0.2-0.2,0.5-0.4,0.9-0.4c0.4,0,0.7,0.1,0.9,0.3
	c0.2,0.2,0.4,0.5,0.4,0.8c0,0.4-0.1,0.7-0.4,0.9C129.9,2.3,129.6,2.4,129.2,2.4z M136.6,3.7c1.3,0,2.2,0.3,2.9,0.9
	c0.7,0.6,1,1.5,1,2.7v5h-1.9v-1c-0.2,0.4-0.6,0.7-1.1,0.9c-0.4,0.2-1,0.3-1.6,0.3s-1.2-0.1-1.7-0.3c-0.5-0.2-0.9-0.5-1.1-0.9
	c-0.3-0.4-0.4-0.9-0.4-1.3c0-0.8,0.3-1.4,0.8-1.8c0.6-0.5,1.5-0.7,2.7-0.7h2.2V7.2c0-0.6-0.2-1.1-0.5-1.4c-0.4-0.3-0.9-0.5-1.6-0.5
	c-0.5,0-1,0.1-1.4,0.2c-0.5,0.2-0.8,0.4-1.2,0.6L133,4.8c0.5-0.4,1-0.6,1.6-0.8C135.2,3.8,135.9,3.7,136.6,3.7z M136.3,11
	c0.5,0,0.9-0.1,1.3-0.3c0.4-0.2,0.7-0.6,0.8-1v-1h-2.1c-1.2,0-1.7,0.4-1.7,1.1c0,0.4,0.1,0.6,0.4,0.9C135.4,10.9,135.8,11,136.3,11
	L136.3,11z"/>
<path fill="#EC7E0E" d="M68.5,6.6h2v4.5c-0.6,0.5-1.3,0.8-2,1.1c-0.8,0.2-1.6,0.4-2.4,0.4c-1.1,0-2.2-0.2-3.1-0.7
	c-0.9-0.5-1.6-1.2-2.2-2.1c-0.5-0.9-0.8-1.9-0.8-3s0.3-2.1,0.8-3c0.5-0.9,1.3-1.6,2.2-2c0.9-0.5,2-0.8,3.1-0.8
	c0.9,0,1.8,0.2,2.6,0.5c0.8,0.3,1.4,0.8,1.9,1.4l-1.3,1.3c-0.9-0.9-1.9-1.3-3.1-1.3c-0.8,0-1.5,0.2-2.1,0.5
	c-0.6,0.3-1.1,0.8-1.4,1.4c-0.3,0.6-0.5,1.3-0.5,2c0,0.7,0.2,1.4,0.5,2c0.3,0.6,0.8,1.1,1.4,1.4c0.6,0.3,1.3,0.5,2.1,0.5
	c0.9,0,1.6-0.2,2.3-0.6C68.5,10.1,68.5,6.6,68.5,6.6z M81.5,8.1c0,0.1,0,0.3,0,0.6h-6.7c0.1,0.6,0.4,1.1,0.9,1.5
	c0.5,0.4,1.1,0.5,1.9,0.5c0.9,0,1.7-0.3,2.3-0.9l1.1,1.2c-0.4,0.5-0.9,0.8-1.5,1c-0.6,0.2-1.2,0.4-2,0.4c-0.9,0-1.8-0.2-2.5-0.6
	c-0.7-0.3-1.3-0.9-1.7-1.6c-0.4-0.7-0.6-1.4-0.6-2.3c0-0.8,0.2-1.6,0.6-2.2c0.4-0.7,0.9-1.2,1.6-1.6c0.7-0.4,1.4-0.6,2.3-0.6
	c0.8,0,1.6,0.2,2.2,0.6c0.7,0.4,1.2,0.9,1.5,1.6C81.3,6.5,81.5,7.3,81.5,8.1z M77.2,5.3c-0.6,0-1.2,0.2-1.6,0.6
	c-0.4,0.4-0.7,0.9-0.8,1.5h4.8c-0.1-0.6-0.3-1.1-0.8-1.5C78.4,5.5,77.9,5.3,77.2,5.3L77.2,5.3z M86.6,12.5c-0.7,0-1.4-0.1-2-0.3
	c-0.7-0.2-1.2-0.4-1.6-0.7l0.8-1.5c0.4,0.3,0.9,0.5,1.4,0.6c0.5,0.1,1.1,0.2,1.6,0.2c1.2,0,1.8-0.3,1.8-0.9c0-0.3-0.2-0.5-0.5-0.6
	c-0.3-0.1-0.8-0.2-1.5-0.3c-0.7-0.1-1.3-0.2-1.7-0.4c-0.4-0.1-0.8-0.4-1.2-0.7c-0.3-0.4-0.5-0.8-0.5-1.5c0-0.8,0.3-1.5,1-1.9
	C84.9,4,85.8,3.7,87,3.7c0.6,0,1.2,0.1,1.8,0.2c0.6,0.1,1.1,0.3,1.4,0.5L89.4,6c-0.7-0.4-1.5-0.6-2.4-0.6c-0.6,0-1,0.1-1.3,0.3
	c-0.3,0.2-0.4,0.4-0.4,0.7c0,0.3,0.2,0.6,0.5,0.7c0.3,0.1,0.8,0.2,1.5,0.4c0.7,0.1,1.2,0.2,1.7,0.4c0.4,0.1,0.8,0.4,1.1,0.7
	c0.3,0.3,0.5,0.8,0.5,1.4c0,0.8-0.3,1.4-1,1.9C88.7,12.2,87.8,12.5,86.6,12.5L86.6,12.5z M97.8,11.9c-0.3,0.2-0.5,0.3-0.9,0.4
	c-0.3,0.1-0.7,0.1-1.1,0.1c-0.9,0-1.7-0.2-2.2-0.7c-0.5-0.5-0.8-1.2-0.8-2.1V5.5h-1.4V3.9H93v-2h2v2h2.3v1.6H95v4.1
	c0,0.4,0.1,0.7,0.3,1c0.2,0.2,0.5,0.3,0.9,0.3c0.4,0,0.8-0.1,1.1-0.4L97.8,11.9z"/>
</svg>
