<svg xmlns="http://www.w3.org/2000/svg" width="565" height="227" fill="none"><g clip-path="url(#a)"><path fill="#6C63FF" d="M561 159h-52v63h48v2h-48v51l4-2h1a92 92 0 0 0 26-17l3-3 1-1 2-3h1l9-14v-1a55 55 0 0 0 2-7h1c2-10 3-21 3-31v-20a380 380 0 0 0-1-11v-6Zm-52-70h28a194 194 0 0 0-28-32v32Zm0 2v66h52-1v-8l-1-2v-2a111 111 0 0 0 0-4 143 143 0 0 0-11-34l-9-16h-30Zm-124 68v63h111v-63H385Zm0 65v43c13-4 28-3 41 1l31 8c5 2 9 3 14 3h3l2 1h9l1-1h6a66 66 0 0 0 4-1v-54H385Zm83-135v2h-83v66h111V91h-5v-2h5V46A182 182 0 0 0 385 5v84h83Zm-255 0h159V6c-28 2-55 11-78 27-10 8-20 17-32 22-6 3-13 5-20 6l-29 28Zm-1-35v19l15-15-15-4Zm0 238v41a314 314 0 0 0 144-49l2-1 4-2 2-2 1-1 4-3 3-2v-49H245v-1 1h-33v68Zm0-201v66h160V91H212Zm0 68v63h160v-63H212ZM180 56l20 19V54l-20 2ZM44 159v63h156v-63H44Zm37 156a300 300 0 0 0 88 19h31V224H44v73l37 18ZM0 222h31v-63H19a175 175 0 0 0-5 10c-8 17-14 35-14 53Zm0 2a80 80 0 0 0 31 63v-63H0Zm20-67h11v-16l-11 16Zm69-68h107v-1l-30-29-27 7-2 1c-17 5-33 13-48 22Zm-45 37v31h156V93l-3-2H86c-15 10-30 21-42 35Z" opacity=".1"/><path fill="#6C63FF" d="M509 124v33h52-1v-8l-1-2v-2a109 109 0 0 0 0-4l-4-17h-46Zm52 35h-52v63h48v2h-48v51l4-2h1a92 92 0 0 0 26-17l3-3 1-1 2-3h1l9-14v-1a55 55 0 0 0 2-7h1c2-10 3-21 3-31v-20a380 380 0 0 0-1-11v-6Zm-104-59v57h39v-57h-5V81h-23v19h-11Zm39 59h-39v63h39v-63Zm0 65h-39v52c5 2 9 3 14 3h3l2 1h9l1-1h8l2-1v-54ZM244 94h-32v63h32V94Zm-32 65v63h160v-27h-85v16h-43v-52h-32Zm0 133v41a316 316 0 0 0 152-54l5-4 3-2v-49H245v-1 1h-33v68ZM128 89h21v-6h-10V66l-2 1v16h-9v6Zm-51 68h123V94h-6v47h-25v-28h-20V91h-21v22h-21v28H77v16Zm0 2v63h123v-63H77Zm4 156a300 300 0 0 0 88 19h31V224H77v22H44v50m-15-72H0a80 80 0 0 0 31 62v-40h-2v-22Zm-29-2h29v-53H14c-8 17-14 35-14 53Z" opacity=".1"/><path fill="#6C63FF" d="M229 111h-17v20h17v-20Zm0 42h-17v4h17v-4Zm0 6h-17v13h17v-13Zm0 35h-17v20h17v-20Zm143 27h-74v1h74v-1Zm0 3h-74v6h74v-6Zm-217-46h14v-13h-14v13Zm316-60h15v-13h-15v13Zm0 30h15v-13h-15v13Zm0 30h15v-13h-15v13Zm0 30h15v-13h-15v13Zm0 30h15v-13h-15v13ZM99 178h15v-13H99v13Zm56 32h14v-13h-14v13Zm-56 0h15v-13H99v13Zm410-69v7h50v-7h-50Zm45 0h4v7h-4v-7Zm-5 0h4v7h-4v-7Zm-5 0h4v7h-4v-7Zm-5 0h4v7h-4v-7Zm-5 0h4v7h-4v-7Zm-5 0h4v7h-4v-7Zm-5 0h4v7h-4v-7Zm-5 0h4v7h-4v-7Zm-5 0h4v7h-4v-7Zm-5 0h4v7h-4v-7Zm0 22v7h50v-7h-50Zm45 0h4v6h-4v-6Zm-5 0h4v6h-4v-6Zm-5 0h4v6h-4v-6Zm-5 0h4v6h-4v-6Zm-5 0h4v6h-4v-6Zm-5 0h4v6h-4v-6Zm-5 0h4v6h-4v-6Zm-5 0h4v6h-4v-6Zm-5 0h4v6h-4v-6Zm-5 0h4v6h-4v-6Zm0 21v8h50v-8h-50Zm45 1h4v6h-4v-6Zm-5 0h4v6h-4v-6Zm-5 0h4v6h-4v-6Zm-5 0h4v6h-4v-6Zm-5 0h4v6h-4v-6Zm-5 0h4v6h-4v-6Zm-5 0h4v6h-4v-6Zm-5 0h4v6h-4v-6Zm-5 0h4v6h-4v-6Zm-5 0h4v6h-4v-6Zm0 21v7h50v-7h-50Zm45 0h4v7h-4v-7Zm-5 0h4v7h-4v-7Zm-5 0h4v7h-4v-7Zm-5 0h4v7h-4v-7Zm-5 0h4v7h-4v-7Zm-5 0h4v7h-4v-7Zm-5 0h4v7h-4v-7Zm-5 0h4v7h-4v-7Zm-5 0h4v7h-4v-7Zm-5 0h4v7h-4v-7Zm-297 86Zm33-68v-1 1ZM468 89v2h23v-2h-23ZM212 292Zm33-68v-1 1Zm-33 68Zm33-68v-1 1Z" opacity=".1"/><path stroke="#6C63FF" stroke-miterlimit="10" stroke-width="1.9" d="M185 43a11 11 0 1 0 0-22 11 11 0 0 0 0 22Z" opacity=".2"/><path stroke="#6C63FF" stroke-miterlimit="10" stroke-width="1.9" d="M185 52a20 20 0 1 0 0-40 20 20 0 0 0 0 40Z" opacity=".2"/><path stroke="#6C63FF" stroke-miterlimit="10" stroke-width="1.9" d="M185 64a32 32 0 1 0 0-64 32 32 0 0 0 0 64Z" opacity=".2"/><path fill="url(#b)" d="m263 410-2-5-8-12s-2-6 0-9c1-3-5-10-5-10s-1-2 1-4-1-9-1-9l-1-16-2-13-2-25-5-65v-2l-1-36 1-1c8-6 25-21 24-22a751 751 0 0 1-5-44l-2-8v-1s-5-10-5-14c1-4 2-7-9-9 0 0-9-1-14-4-3-3-7-4-10-5 0 0-2-4-4-3v-7a8 8 0 0 0 5-8V53a8 8 0 0 0-8-8h-24V33a1 1 0 0 0 0-1h-1a1 1 0 0 0-1 1v13a8 8 0 0 0-5 6v26a8 8 0 0 0 5 8v6l-3 4-11 5a168 168 0 0 0-17 5c-3 0-5 6-5 10 0 3 0 6-3 6s-1 6-1 6a275 275 0 0 0-2 9 777 777 0 0 1-5 44l19 18 1 1-4 34s0 4 4 7v1l-1 10-1 15-2 27c-2 2-2 8-2 9 1 1-1 31-1 31l-2 13v13c-2 0-2 9-2 9s-5 6-3 8 0 3-1 4c0 0-4 3-1 10v1c-3 3-12 16-11 18l2 2c2 2 6 2 12 0 9-3 9-5 9-5s0-3 4-3c4-1 7-4 7-4l-1-2v-2c0-1 0-2 2-3 4-1 3-7 3-7l1-7 1-12s1-7 4-13c2-5 5-36 5-36l3-19c2-4 4-17 4-17s10-20 10-24c0 0 2-4 3 0l5 16 4 14 5 20 3 17v9c1 2 3 7 2 8s2 6 3 7v21s3 18 8 21l1 1a73 73 0 0 0 0 6l6 5 5 3 12 7c1 0 9 1 10-1v-2Zm-26-252 1 1 1 7v5l1 4c1 1-1 4-1 4h-2l-1-22 1 1Zm-78 19v-3a15 15 0 0 0 1-3v-5l1-7v-1l2-1v-1 11l-2 6-1 6-1-2Z"/><path fill="#6F758D" d="M187 33v18a1 1 0 1 1-3 0V33a1 1 0 0 1 1-1 1 1 0 0 1 2 1Zm25 46v27a8 8 0 0 1-8 8h-11a8 8 0 0 1-8-8V79a8 8 0 0 1 8-8h11a8 8 0 0 1 8 8Z"/><path fill="#3F3D56" d="m167 179-2 27-8-7-19-17a792 792 0 0 0 5-44 90 90 0 0 0 2-10l4-1 16 17-1 14-2 1-1 7v6l-1 2v3l1 2h6Zm94 3-24 21-3 3-2-27h5l2-4-1-3v-6l-1-7-1-1h-1l-1-14 16-17 3 1a159 159 0 0 0 2 10l3 12 3 32Zm-10 202v9s-19 1-23-2c-5-3-8-21-8-21v-21l-3-7c1-1 0-6-1-8l-1-9-3-17-4-20-4-14-5-15c-1-5-3-1-3-1 0 5-10 25-10 25l-3 16-4 20s-2 30-5 36l-3 12-1 12c-2 1-1 7-1 7s0 6-3 7-2 3-2 3-18 3-21-5c-3-7 1-9 1-10s3-2 1-4 2-8 2-8l2-9 1-13 1-13 2-31a214 214 0 0 0 4-36v-14l1-10 1-6 15-6 20-6 17 8 25 5v4l5 65 3 25 1 13 2 16s3 7 1 9-1 4-1 4 5 7 4 10Z"/><path fill="#000" d="m222 103-7 114-35-7-7-46 7-62 5 1 9 1 9 1 10-1 9-1Z" opacity=".1"/><path fill="#6C63FF" d="m222 104-7 114-35-7-7-46 7-62 5 1 9 1 9 1 10-1 9-1Z"/><path fill="#3F3D56" d="M193 107h13l-4 5s0 10 2 13 1 47 1 47l-3 6-6-7v-58l-3-6Z"/><path fill="#000" d="M193 107h13l-4 5s0 10 2 13 1 47 1 47l-3 6-6-7v-58l-3-6Z" opacity=".1"/><path fill="#000" d="m213 94-12 13 7 7 11-11-6-9Z" opacity=".1"/><path fill="#6C63FF" d="m212 94-11 12 7 7 11-11-6-8a1 1 0 0 0-1 0Z"/><path fill="#000" d="m196 106-12-12-1 6 5 14 8-8Z" opacity=".1"/><path fill="#6C63FF" d="m196 105-12-12-1 7 6 13 7-8Z"/><path fill="#000" d="M236 242c-5 3-11 4-18 5-11 2-19-13-19-13l-4 6c-2 6-23 7-32 5l-5-2 1-6 15-6 20-6 17 8 25 5v4Zm-14-138-7 114-35-7-7-46 7-62 5 1v7c-1 3 4 31 4 31s10 31 14 27c5-5 11-28 11-28 4-9 0-34 0-34l-1-3h9Zm15 88v11l-3 3-2-27h4l1 13Zm-76-20-1 2 1-2Zm6 7-2 27-8-7 1-4 2-18 1 2h6Z" opacity=".1"/><path fill="#3F3D56" d="M186 94s-2-3-5 3c0 0-7 4-10 4l-12 4-5 2c-2 0-5 6-4 9 0 4-1 6-3 6-3 1-2 6-2 6l18 20 1 20-2 6-3 21-4 40s0 6 8 9c9 2 30 0 32-6l4-5s8 14 19 13c12-2 19-6 19-6l-1-48-1-34 18-30s-5-9-4-13c0-5 1-8-9-9 0 0-9-1-14-5l-10-5s-2-4-4-2l1 7 1 7c0 1 4 25 0 34 0 0-6 24-11 28-4 5-14-26-14-26s-5-28-4-32l1-18Z"/><path fill="#3F3D56" d="M201 185a3 3 0 1 0 0-6 3 3 0 0 0 0 6Zm0 15a3 3 0 1 0 0-6 3 3 0 0 0 0 6Z"/><path fill="#000" d="M201 185a3 3 0 1 0 0-6 3 3 0 0 0 0 6Zm0 15a3 3 0 1 0 0-6 3 3 0 0 0 0 6Zm11-121v8l-3 1h-21l-3-1v-8a8 8 0 0 1 8-8h11a8 8 0 0 1 8 8Zm-25-34v6a1 1 0 1 1-3 0v-5l3-1Z" opacity=".1"/><path fill="#DCDFED" d="M210 45h-23c-4 0-7 3-7 7v28c0 4 3 7 7 7h23c4 0 7-3 7-7V52c0-4-3-7-7-7Z"/><path fill="#000" d="M209 73v17h-21V73l5-2h11l5 2Z" opacity=".1"/><path fill="#000" d="M209 45h-21v43h21V45Z" opacity=".1"/><path fill="#6F758D" d="M209 45h-21v43h21V45Z"/><path fill="#DCDFED" d="M196 60h-7v1h7v-1Zm12 0h-7v1h7v-1Zm-4 14h-11v1h11v-1Z"/><path fill="url(#c)" d="m344 121 8 40a2 2 0 0 0 2 2h6l1 3c1 2 1 5 4 6l5 1h4l3 2 1 1h1l1 1c1 2 4 2 6 2l7 1 2 1v1l1 2a3 3 0 0 1 0 2l-1 1v10l1 4-1 2v10l-1 2v6a46 46 0 0 0 1 13v1a59 59 0 0 1-1 7l1 2 1 10 1 3 1 5 1 3v13l2 10v7c0 2 1 5 3 6l4 1 4 39 1 7c1 12-3 24-6 36-3 2-7 5-8 8l1 3 1 1v3h2a2456 2456 0 0 0-1 7l1 4v1h1a16 16 0 0 0 16-1v-1l1-5 2-5 1-8v11h2a191 191 0 0 0 1-15v-5l1-3h1l-1 17c1 1 3 0 4-1l1-4a187 187 0 0 1 2-17l2-2v-3l-2-6-5-2c-2-3-1-5-1-8a3705 3705 0 0 1 1-19l2-6 1-6-1-7-2-13-1-2 2-2c-1-7-2-15 2-22l3-7v-1l1-2 7-17 1-2 4-9a120 120 0 0 0 4-17 16 16 0 0 0-2-6l1-1c0-3 1-7-1-10l-1-1v-4c1-2-1-4-2-7h-1l1-3-1-1 17 2c3 0 7-1 9-3s2-4 2-6c1-4 0-8-1-12l-1-8h2l9-3c3-1 5-5 4-8l-3-5c-3-5-2-12 1-18 1-3 3-6 2-9-1-4-5-6-9-9a23 23 0 0 1-8-19v-9c-1-2-4-4-7-5-4-3-7-6-9-11-1-2-2-5-5-5l-7-1h-8a43 43 0 0 0-16 10l-1 1-1 1v2l-1 4v1a18 18 0 0 0 4 23l-2 5-3 4-11 4-3 1-2 1a8 8 0 0 0-3 8v1l-1 5a576 576 0 0 0-3 34h-2l-9-44a2 2 0 0 0-2-2h-33a2 2 0 0 0-2 2v1Zm104 52v-1l2-1a2 2 0 0 0 0-2v-4l1-2 2-3 1-1v1l1 2v1l2 4v6h1v1a10 10 0 0 1-8 0l-2-1Zm-70-8 10 1-3 1-2-1a51 51 0 0 0-5-1Z"/><path fill="#3F3D56" d="M448 67c2 4 5 8 9 10l7 6v8a22 22 0 0 0 8 20c4 3 8 5 9 9 0 3-1 6-3 8-2 6-3 13 0 19l3 5c0 3-1 6-4 8s-6 2-9 2-5 0-7-2l-2-4-4-11c-1-3-1-5-3-6-3-4-9-3-13-3-7 0-14-1-20-3-4-2-8-4-9-8-1-3 2-7 4-10l5-8 3-7c1-5-1-10-3-14s-3-10-1-14l4-4c4-2 9-6 14-7h7c3 1 4 4 5 6Z"/><path fill="#454B69" d="m398 122-2 9a136 136 0 0 0-2 29 33 33 0 0 1-1 5h-1l-2 2a5 5 0 0 1-6 0 6 6 0 0 1-2 6 8 8 0 0 1-7 2l3 1 1 1 1 1h1c1 2 4 2 6 2 3 1 5 0 7 2h2c1 1 3 0 5-1l2-4c2-7 2-15 1-22 0-11-2-22-6-33Z"/><path fill="#000" d="m398 122-2 9a136 136 0 0 0-2 29 33 33 0 0 1-1 5h-1l-2 2a5 5 0 0 1-6 0 6 6 0 0 1-2 6 8 8 0 0 1-7 2l3 1 1 1 1 1h1c1 2 4 2 6 2 3 1 5 0 7 2h2c1 1 3 0 5-1l2-4c2-7 2-15 1-22 0-11-2-22-6-33Z" opacity=".1"/><path fill="#3F3D56" d="M396 235v1a65 65 0 0 1-1 7l1 2 1 10 1 2 1 6 1 3v12l2 10v8c0 2 1 5 3 6l6 1h10c4-1 8-1 11-4-1-8-2-16 1-23 1-2 3-3 3-6l1-1v-2l7-17 2-2 3-9a127 127 0 0 0 4-17l-1-5-1-3a149 149 0 0 0-50-3l-4 3-2 2v6a46 46 0 0 0 1 13Z"/><path fill="#FBBEBE" d="m412 141 1 4 2 2 5-3 3-4 7-8a51 51 0 0 0 4-6c2-3 3-7 6-9l5-4-2-4a47 47 0 0 1-1-6v-5l-5-1c-3 0-7 1-9 3l-2 1-1 4v2l-1 4-4 2h-1l-4 3-2 6-1 6v13Z"/><path fill="#000" d="M425 106v1l9-2c4 0 5 1 9-1l-1-2v-4l-5-1c-3 0-7 1-9 3l-2 1-1 5Z" opacity=".1"/><path fill="#FBBEBE" d="M414 89a18 18 0 0 0 17 17 18 18 0 0 0 18-17 18 18 0 0 0-30-13c-3 4-5 8-5 13Z"/><path fill="#6C63FF" d="m444 110 1-1c2 0 2 1 3 2l1 3 2 3 3 1c1 2 0 3-1 5-2 5-8 8-13 11l-5 4-7 4-12 5-5 2-1-4c-1-8-2-17 0-25l2-4 2-2 7-3 4-1-1 2-9 20-1 4 1 6a133 133 0 0 1 18-22v-2l1-3 3-1 7-4Z"/><path fill="#000" d="M396 215c5 3 10 4 15 4l15 1 11-1 15-2-1-3a149 149 0 0 0-50-3l-4 3-1 1Z" opacity=".1"/><path fill="#454B69" d="M397 160c2 7 1 14-1 21v2l1 2a3 3 0 0 1 0 3l-1 1v9l1 4-1 3v9c5 2 10 4 15 4h26l15-2c1-4 1-8-1-10l-1-2 1-3c0-3-1-5-3-7v-5l-1-1v-2l1-10v-1l1-1 1-2a2 2 0 0 0 0-2l1-2v-1l1-3a192 192 0 0 1 15-21l3-5v-7l-3-4-3-4c-2-2-3-3-5-3h-3l-1-1h-3l-18 10-2 2-2 1-7 5-10 8-1 1a7199 7199 0 0 1-1-17l1-1 2-6a19 19 0 0 1 5-9 2 2 0 0 0 0-2l-15 5h-2l-2 2a8 8 0 0 0-3 7l1 3v5l-2 4-2 4v5l2 11 1 3Z"/><path fill="#3F3D56" d="m427 169-35-4h-6l6 2 35 2Z"/><path fill="#3F3D56" d="M428 170v-2l-37-2-2 1 39 3Z"/><path fill="#FBBEBE" d="M428 165h-2l-3-1h-2l-5 1h-1a1 1 0 0 0 0 1l4 1 3 1h2a1 1 0 0 1 1 2l-1 1h-4l-4-1-9-1-2 1a2 2 0 0 0 0 2c1 2 4 2 6 2l5 3v3l2 3 2 1h13l2-1v-1l1-6v-4l-2-2c-2-2-3-4-6-5Z"/><path fill="#3F3D56" d="m382 121 9 44a2 2 0 0 1-1 2h-1l-33-3a2 2 0 0 1-2-2l-8-40a2 2 0 0 1 1-2h33a2 2 0 0 1 2 1Z"/><path fill="#FBBEBE" d="M366 173c-2-1-3-4-4-6l-2-5c-1-1-2-3-1-5l2-2h3l3 2 3 3 4 4 3 2a74 74 0 0 0 9 2 2 2 0 0 1 1 1 2 2 0 0 1 0 2l-3 4-4 1-4-1-5-1-5-1Z"/><path fill="#454B69" d="M384 167s-1 9-9 8l4 2 9-1 1-5v-2l-5-2Z"/><path fill="#000" d="M384 167s-1 9-9 8l4 2 9-1 1-5v-2l-5-2Zm36-35-2 2-1 3-2 5m38 13c-1 3 0 5 1 7a299 299 0 0 1 13-19l3-5v-1c0-2-2-2-3-3-2 6-7 10-11 16l-3 5Zm-26 31h12l3 2v1l3 1h3v-1l-1-1v-2l1-10v-1l-3-1-3 1-5-2-1-1-1-1-2-1a37 37 0 0 1-1 8l-1 2-4 6Z" opacity=".1"/><path fill="#454B69" d="M468 134c2 0 4 2 4 4l1 7c-1 8 0 17 1 25l2 12-2 6c-3 3-6 3-10 3l-18-2-3-1-1-1-2-1-13-1 4-6 2-2v-2l1-6 2 1 1 2h1l5 2 3-1 4 2a10 10 0 0 0 8 0v-2l-1-5-1-4v-1l-1-2c-2-2-2-4-1-6l3-6c4-5 9-9 11-15Z"/><path fill="#000" d="m434 129-2 2 2 1c7 2 4 5 11 5 5 0 10 0 13 3l4 6 1 3 4-6 3-5v-7l-3-4-3-4c-2-2-3-3-5-3h-3l-1-1h-3l-18 10Z" opacity=".1"/><path fill="#3F3D56" d="m417 76 1-3 1-1a16 16 0 0 1 12-6h1v1c4-3 7-5 11-6h7c3 1 4 4 6 6 2 4 5 8 8 10l7 6v8a22 22 0 0 0 9 20c3 3 7 5 8 9 1 3-1 6-2 8-3 6-4 13-1 19l3 4c1 4-1 7-4 9-2 2-6 2-9 2-2 0-5 0-7-2l-2-4a6521 6521 0 0 1-7-17c-3-4-8-3-13-3-7 0-5-3-11-5-4-2-8-4-9-8-1-3 2-7 4-10l5-7c2-3 3-5 3-8 1-5-10-8-12-12l-1-4h-2c-2 0-5-1-6-3v-3Z"/><path fill="#000" d="M436 65h-1l8-4h1l-7 4h-1Zm-19 11 1-3 1-2 9-5-5 4-1 2v6c0 2 3 2 5 3h2l1 4c2 4 13 7 13 11l-4 8-5 7c-2 3-4 7-4 11 1 4 5 6 9 7 7 2 4 5 11 5 5 0 10 0 13 3l4 6a7514 7514 0 0 0 6 15c1 2 4 2 6 2h4c-2 2-5 2-8 2-2 0-5 0-7-2l-2-4a7514 7514 0 0 1-7-17c-3-4-8-3-13-3-7 0-5-3-11-5-4-2-8-4-9-8s2-7 4-10l5-8c2-2 3-5 3-7 1-5-10-8-12-12l-1-4h-2c-2 0-5-1-6-3v-3Z" opacity=".1"/></g><defs><linearGradient id="b" x1="196.3" x2="196.3" y1="413.7" y2="31.6" gradientUnits="userSpaceOnUse"><stop stop-color="gray" stop-opacity=".3"/><stop offset=".5" stop-color="gray" stop-opacity=".1"/><stop offset="1" stop-color="gray" stop-opacity=".1"/></linearGradient><linearGradient id="c" x1="416.2" x2="416.2" y1="412.8" y2="59.1" gradientUnits="userSpaceOnUse"><stop stop-color="gray" stop-opacity=".3"/><stop offset=".5" stop-color="gray" stop-opacity=".1"/><stop offset="1" stop-color="gray" stop-opacity=".1"/></linearGradient><clipPath id="a"><path fill="#fff" d="M0 0h565v227H0z"/></clipPath></defs></svg>