<svg xmlns="http://www.w3.org/2000/svg" width="558" height="178" fill="none">
<path fill="#3F3D56" d="M439.188 278.28c-1.369 1.998-2.479 1.924-3.451.632a10.348 10.348 0 0 1-1.224-2.4c-2.952-7.569-4.883-24.933-10.449-18.861a250.048 250.048 0 0 1-3.336 3.565c-2.082 2.19-4.257 4.567-6.412 6.667a2.8 2.8 0 0 0 .042-.222c-1.063 1.039-.262-7.954-.683-10.484-.089-.547-.235-.791-.467-.573a9.09 9.09 0 0 1-.028-.739c-.003-.391.017-.782.059-1.171.035-.357.083-.718.151-1.082l18.199-97.318a12.2 12.2 0 0 1 10.533-9.855 12.617 12.617 0 0 1 3.66.129l3.313.62c1.308.244 2.566.704 3.723 1.36l.006.001a12.189 12.189 0 0 1 5.996 12.838L439.188 278.28ZM158.381 148.925l-7.269 31.979-4.644 5.088h-3.351l13.81-58.145.683 9.878v.006l.771 11.194Z"/>
<path fill="#000" d="M157.61 137.725v.006l-11.825 48.261h-2.668l13.81-58.145.683 9.878Z" opacity=".17"/>
<path fill="#3F3D56" d="M172.121 146.568 155.382 19.221a1.813 1.813 0 0 0-.69-1.205L143.169 3.594l-1.035-.797a1.839 1.839 0 0 0-1.343-.358l-1.732.232a1.816 1.816 0 0 0-1.569 2.034l17.346 131.947v.006l1.061 8.071 1.262 9.584v.012l1.958 14.912a1.769 1.769 0 0 0 .784 1.268c.211.145.451.244.703.29.252.045.511.036.76-.026l1.098-.276c.421-.109.79-.362 1.042-.716l.489-.697.226-.326 7.582-20.899c.266-.373.38-.833.32-1.287Z"/>
<path fill="#000" d="m143.166 3.594 21.055 165.162-.229.323-.488.695a1.838 1.838 0 0 1-1.042.716l-1.1.276a1.822 1.822 0 0 1-2.246-1.53L137.492 4.706a1.818 1.818 0 0 1 1.565-2.038l1.736-.229a1.791 1.791 0 0 1 1.338.36l1.035.795Z" opacity=".17"/>
<path fill="#6C63FF" d="m143.787 8.317 11.173 15.948 13.28 101.045-7.199 14.284L143.787 8.317Z"/>
<path fill="#A0616A" d="M281.308 113.281a6.882 6.882 0 0 0 10.289 2.332l20.369 13.522.039-12.705-19.349-10.892a6.914 6.914 0 0 0-9.113-1.169 6.919 6.919 0 0 0-2.235 8.912Z"/>
<path fill="#E6E6E6" d="m415.58 119.32-.089-.112-24.244-2.392-16.381 28.855c-14.081 17.214-3.849 29.085-3.236 30.851l-4.888 22.535 1.096 7.542.547 2.241 55.791 29.152-11.467-38.202 11.197-34.837a49.079 49.079 0 0 0-8.326-45.633Z"/>
<path fill="#2F2E41" d="M442.144 93.928a21.082 21.082 0 0 1-2.292 10.475 21.077 21.077 0 0 1-15.488 11.22 21.076 21.076 0 0 1-9.803-.783l-3.873-1.262c-.031-.012-.069-.019-.1-.031l-6.383-2.084a4.298 4.298 0 0 1 .013-.81c-9.521-4.066 3.64-17.428 6.91-27.464.508-1.562-16.971-.395-16.142-1.732a21.68 21.68 0 0 1-.534-.282 25.868 25.868 0 0 1 28.569-11.134c.138.032.282.076.42.113 12.402.308 18.916 8.95 18.916 20.171a30.76 30.76 0 0 1-.213 3.603Z"/>
<path fill="#A0616A" d="M431.399 98.347a20.22 20.22 0 0 1-27.182 12.307 20.208 20.208 0 0 1-11.253-24.84 20.21 20.21 0 0 1 27.723-12.072 20.212 20.212 0 0 1 10.712 24.605Z"/>
<path fill="#2F2E41" d="M410.689 113.578c-.032-.012-.069-.018-.101-.031l-6.382-2.084a4.374 4.374 0 0 1 .012-.809c.19-2.102 1.665-4.302 3.645-6.678a12.23 12.23 0 0 0-5.377-19.424l-.163-.057a56.562 56.562 0 0 1-7.337-3.037c-.182-.094-.364-.189-.533-.283-1.595-.878-2.749-1.757-3.258-2.598a18.663 18.663 0 0 1 9.293-10.858 18.67 18.67 0 0 1 14.249-1.104l3.703 1.205a18.597 18.597 0 0 1 10.794 9.188c2.611 1.87 4.67 4.62 6.283 7.864 8.108 16.28-7.544 34.254-24.828 28.706Z"/>
<path fill="#3F3D56" d="M452.913 106.519a17.083 17.083 0 0 0-19.929 13.649 17.083 17.083 0 0 0 10.493 19.017l-5.136 27.459 10.717 2.004 11.356-60.726-7.501-1.403Z"/>
<path fill="#2F2E41" d="M437.488 86.328a8.787 8.787 0 1 0-.001-17.573 8.787 8.787 0 0 0 .001 17.573Z"/>
<path fill="#2F2E41" d="M539.913 102.77c-3.812 1.271-7.889 1.488-11.907 1.558-11.692.202-23.681-.823-34.322-5.671-10.642-4.849-19.804-14.063-22.169-25.515-1.02-4.936-.9-10.434-4.01-14.4-3.692-4.706-11.111-5.348-16.278-2.335-5.168 3.013-8.186 8.875-9.063 14.793l-2.082 3.384c.049 2.179 2.407 3.628 4.576 3.832 2.17.204 4.352-.394 6.525-.232 4.763.354 8.647 4.429 10.035 8.999s.72 9.513-.468 14.139c-1.188 4.626-2.886 9.139-3.564 13.867-.678 4.728-.218 9.858 2.564 13.741 2.088 2.914 5.269 4.846 8.504 6.392a57.372 57.372 0 0 0 50.104-.309 57.382 57.382 0 0 0 30.758-39.554c-1.822 3.582-5.39 6.039-9.203 7.311Z"/>
<path fill="#3F3D56" d="M157.372 89.09v-.002a.59.59 0 0 1 .644-.514l96.827.258a.586.586 0 0 1 .639.516v.001a.59.59 0 0 1-.644.514l-96.827-.257a.587.587 0 0 1-.639-.516Z"/>
<path fill="#6C63FF" d="m182.977 148.724-4.111 4.522c-.191.16-.423.262-.67.295a1.309 1.309 0 0 1-.724-.114 4.149 4.149 0 0 1-1.759-1.206 60.182 60.182 0 0 0-9.836-8.943 4.14 4.14 0 0 1-1.368-1.637 1.322 1.322 0 0 1 .031-1.385c.041-2.474 1.435-4.007 4.143-4.557.475-.494 1.548-.306 2.509.443a100.003 100.003 0 0 1 11.12 10.11c.846.895 1.132 1.958.665 2.472Z"/>
<path fill="#fff" d="m172.41 138.99-3.46 3.806c-.119.131-.407.064-.643-.151-.236-.214-.331-.494-.211-.626l3.46-3.806c.12-.131.408-.064.644.151.236.214.33.494.21.626ZM175.827 142.098l-3.46 3.806c-.119.131-.407.064-.643-.151-.236-.214-.331-.494-.211-.626l3.46-3.806c.12-.131.408-.064.644.151.236.214.33.494.21.626ZM179.245 145.205l-3.46 3.806c-.12.131-.407.064-.643-.151-.236-.214-.331-.495-.211-.626l3.46-3.806c.12-.131.408-.064.644.15.235.215.33.495.21.627Z"/>
<path fill="#E6E6E6" d="m381.422 250.153-11.357-8.846 20.636-39.99-7.732-50.926a17.349 17.349 0 0 1 4.183-14.125 17.355 17.355 0 0 1 13.537-5.814 17.363 17.363 0 0 1 16.764 17.907l-1.91 57.986-34.121 43.808ZM282.936 124.145h-38.347a3.879 3.879 0 0 1-3.876-3.876V69.493a3.88 3.88 0 0 1 3.876-3.876h38.347a3.881 3.881 0 0 1 3.876 3.876v50.776a3.883 3.883 0 0 1-1.136 2.74 3.883 3.883 0 0 1-2.74 1.136Z"/>
<path fill="#fff" d="M280.241 120.914h-32.956a3.445 3.445 0 0 1-3.441-3.442V72.289a3.446 3.446 0 0 1 3.441-3.442h32.956a3.445 3.445 0 0 1 3.442 3.442v45.183a3.446 3.446 0 0 1-3.442 3.442Z"/>
<path fill="#6C63FF" d="M276.953 77.434h-26.38a.859.859 0 0 1-.61-1.47.855.855 0 0 1 .61-.25h26.38a.855.855 0 0 1 .797.53.85.85 0 0 1 0 .66.855.855 0 0 1-.797.53ZM276.953 80.834h-26.381a.859.859 0 0 1-.608-1.47.859.859 0 0 1 .608-.251h26.381a.858.858 0 0 1 .86.86.865.865 0 0 1-.252.609.856.856 0 0 1-.608.252ZM262.008 84.234h-11.436a.859.859 0 0 1-.608-1.47.859.859 0 0 1 .608-.251h11.436a.859.859 0 0 1 .608 1.468.859.859 0 0 1-.608.253Z"/>
<path fill="#E4E4E4" d="M276.953 91.355h-26.38a.859.859 0 0 1-.61-1.47.855.855 0 0 1 .61-.251h26.38a.855.855 0 0 1 .797.53.85.85 0 0 1 0 .66.855.855 0 0 1-.797.53ZM276.953 94.754h-26.38a.859.859 0 0 1-.61-1.47.856.856 0 0 1 .61-.251h26.38a.855.855 0 0 1 .797.53.85.85 0 0 1 0 .66.855.855 0 0 1-.797.53ZM262.008 98.154h-11.436a.859.859 0 0 1-.608-1.469.859.859 0 0 1 .608-.252h11.436a.859.859 0 0 1 .608 1.469.859.859 0 0 1-.608.252ZM276.953 105.274h-26.381a.857.857 0 0 1-.86-.86.86.86 0 0 1 .86-.86h26.381a.857.857 0 0 1 .86.86.857.857 0 0 1-.86.86ZM276.953 108.674h-26.381a.86.86 0 0 1 0-1.721h26.381a.86.86 0 0 1 0 1.721ZM262.008 112.074h-11.436a.86.86 0 0 1 0-1.721h11.436a.86.86 0 0 1 0 1.721Z"/>
<path fill="#2F2E41" d="m152.445 56.49 102.874-87.992h.163v1.292h.314l-102.51 87.682-.841-.982Z"/>
<path fill="#fff" d="M223.471 157.542H176.17a2.79 2.79 0 0 0-2.787 2.788v29.449a2.792 2.792 0 0 0 2.787 2.788h47.301a2.796 2.796 0 0 0 1.971-.817 2.796 2.796 0 0 0 .817-1.971V160.33a2.792 2.792 0 0 0-2.788-2.788Z"/>
<path fill="#CACACA" d="M223.471 157.542H176.17a2.79 2.79 0 0 0-2.787 2.788v29.449a2.792 2.792 0 0 0 2.787 2.788h47.301a2.796 2.796 0 0 0 1.971-.817 2.796 2.796 0 0 0 .817-1.971V160.33a2.792 2.792 0 0 0-2.788-2.788Zm.915 21.154a11.458 11.458 0 0 1-11.266 11.414c-4.799.063 2.656.087-3.133.087-13.236 0-27.039-.126-32.188-.208a2.597 2.597 0 0 1-2.544-2.587v-27.07a.922.922 0 0 1 .915-.917h47.3a.924.924 0 0 1 .647.268.923.923 0 0 1 .269.647v18.366Z"/>
<path fill="#CACACA" d="M217.231 176.338h-36.038a1.546 1.546 0 0 1-1.456-1.027l-5.566-15.615a1.553 1.553 0 0 1 .192-1.409 1.55 1.55 0 0 1 1.262-.656l48.333-.086h.002a1.549 1.549 0 0 1 1.54 1.409 1.54 1.54 0 0 1-.119.746l-.084-.036.084.036-6.729 15.701a1.54 1.54 0 0 1-1.421.937Z"/>
<path fill="#3F3D56" d="M199.793 180.189a3.85 3.85 0 1 0 0-7.701 3.85 3.85 0 0 0 0 7.701Z"/>
<path fill="#E6E6E6" d="M56.734 273.884a71.369 71.369 0 0 1-12.384-16.392 72.78 72.78 0 0 1-7.253-19.125 69.914 69.914 0 0 1-1.5-20.691 72.45 72.45 0 0 1 15.008-38.794 69.05 69.05 0 0 1 1.63-2.01c.62-.738 1.672.325 1.057 1.057a70.782 70.782 0 0 0-15.974 37.378 70.383 70.383 0 0 0 20.473 57.519c.687.677-.37 1.734-1.057 1.058Z"/>
<path fill="#E6E6E6" d="M61.547 166.962a14.43 14.43 0 0 1-1.312 3.941 18.891 18.891 0 0 1-7.877 8.171c-.188.101-.382.208-.577.302-.232-.364-.47-.728-.697-1.092a25.316 25.316 0 0 1-3.502-7.808c-.728-3.27-.332-6.941 1.764-9.558 2.09-2.617 6.081-3.791 8.975-2.096a6.318 6.318 0 0 1 2.07 2.002c-.288.357-.577.709-.865 1.067a1.103 1.103 0 0 1-.082.094c-.25.314-.508.621-.76.935-1.047 1.286-2.09 2.579-3.137 3.86 1.477.271 2.98.375 4.48.307l.365-.019a18.01 18.01 0 0 0 1.155-.106ZM40.377 192.7l-.402 5.234-.106 1.419c-.113-.057-.233-.113-.346-.17a30.628 30.628 0 0 1-15.985-19.575 29.76 29.76 0 0 1-.784-4.45c2.033-.313 4.073-.633 6.106-.947a20.031 20.031 0 0 0-6.062-5.253 30.294 30.294 0 0 1 5.491-14.529c.528 8.774 9.716 14.353 13.08 22.468a18.252 18.252 0 0 1-.992 15.803Z"/>
</svg>
