<svg xmlns="http://www.w3.org/2000/svg" width="558" height="178" fill="none"><g clip-path="url(#dossiers-a)"><path fill="#D9DCFC" d="M558 145.5a252.374 252.374 0 0 1-22.989 105.648c-.234.519-.474 1.031-.714 1.549-.24.512-.48 1.03-.727 1.542-.316.664-.632 1.322-.954 1.979-.398.828-.803 1.65-1.22 2.472-.05.114-.107.228-.17.341-.348.696-.695 1.391-1.056 2.086a9.04 9.04 0 0 1-.233.449 132.81 132.81 0 0 1-1.264 2.422v.006c-.455.853-.912 1.705-1.371 2.554a232.232 232.232 0 0 1-3.508 6.239c-.36.614-.714 1.227-1.08 1.834-.335.569-.67 1.131-1.011 1.694a74.95 74.95 0 0 1-.708 1.163c-.379.626-.765 1.252-1.156 1.878-.007.006-.007.006-.007.012a250.733 250.733 0 0 1-2.641 4.147h-.006c-.411.639-.828 1.271-1.245 1.903v.006a247.378 247.378 0 0 1-3.849 5.633v.006a.019.019 0 0 0-.012.007v.006l-.013.013a202.485 202.485 0 0 1-3.172 4.418v.007a230.317 230.317 0 0 1-3.83 5.063c-.12.165-.246.323-.379.487v.007c-.158.208-.316.411-.486.619v.006a248.558 248.558 0 0 1-7.716 9.388h-.006c-.139.171-.285.335-.43.5-.139.164-.291.328-.436.499h-.006c-.222.259-.449.518-.677.778-.221.259-.455.518-.688.777v.006a253.992 253.992 0 0 1-46.636 41.155 224.393 224.393 0 0 1-6.951 4.596c-.581.373-1.163.739-1.75 1.106-.177.12-.354.227-.531.335-.31.196-.626.392-.942.588-.309.189-.625.385-.941.575-1.258.771-2.528 1.53-3.798 2.276-.316.19-.638.373-.961.563-.316.183-.638.366-.96.55a.067.067 0 0 1-.038.025l-.013.006-.012.013h-.007c-1.592.916-3.191 1.82-4.809 2.693a253.122 253.122 0 0 1-8.771 4.57c-.733.367-1.472.727-2.211 1.088-.613.297-1.233.594-1.845.885-.171.082-.335.164-.506.24-.512.24-1.024.48-1.536.714-.556.266-1.118.519-1.674.772-.626.284-1.245.562-1.871.84a240.395 240.395 0 0 1-7.109 3.035 247.763 247.763 0 0 1-26.054 9.015 245.74 245.74 0 0 1-12.682 3.268 251.741 251.741 0 0 1-20.297 3.799c-.013 0-.032.007-.045.007-.815.12-1.636.233-2.451.347-.07.013-.146.025-.222.032-.006.006-.012.006-.025 0 0 0 0 .006-.006 0-.904.12-1.808.24-2.717.354a330.973 330.973 0 0 1-2.743.322c-.916.101-1.833.196-2.755.291-.702.07-1.403.139-2.104.202a.935.935 0 0 1-.19.019c-.638.057-1.276.114-1.915.165-.025 0-.057.006-.082.006-.556.051-1.112.088-1.668.133a248.95 248.95 0 0 1-19.811.771c-7.235 0-14.397-.301-21.485-.904-.025 0-.051-.006-.076-.006-1.51-.127-3.018-.266-4.524-.418-.398-.038-.79-.082-1.188-.12-.076-.006-.152-.012-.228-.025l-.366-.038a2.142 2.142 0 0 1-.196-.025c-.525-.057-1.049-.114-1.58-.177-.588-.07-1.182-.139-1.769-.215a89.202 89.202 0 0 1-1.77-.228 3.9 3.9 0 0 1-.385-.05c-.43-.051-.86-.108-1.283-.171-.209-.025-.411-.057-.613-.089a73.8 73.8 0 0 1-1.226-.176c-.013 0-.031-.007-.044-.007a249.605 249.605 0 0 1-38.098-8.591h-.007c-.676-.209-1.352-.424-2.028-.638a11.777 11.777 0 0 1-.607-.19 236.27 236.27 0 0 1-5.238-1.745 233.736 233.736 0 0 1-7.135-2.579l-1.927-.74a264.699 264.699 0 0 1-10.288-4.267h-.006v-.006a228.02 228.02 0 0 1-5.946-2.719.616.616 0 0 1-.165-.075c-.006 0-.006-.007-.012-.007-.436-.202-.872-.411-1.308-.619l-.013-.007a250.696 250.696 0 0 1-31.274-17.865 247.499 247.499 0 0 1-9.447-6.644 244.77 244.77 0 0 1-7.381-5.658 253.877 253.877 0 0 1-33.39-31.918h-.006v-.006c-.715-.816-1.41-1.625-2.117-2.447v-.006a14.71 14.71 0 0 1-.291-.342 97.355 97.355 0 0 1-1.321-1.574v-.006a117.981 117.981 0 0 1-1.744-2.111 24.051 24.051 0 0 1-.366-.449h-.007v-.007c-.467-.568-.929-1.144-1.384-1.719a48.372 48.372 0 0 1-.688-.866h-.007v-.006a233.808 233.808 0 0 1-4.05-5.266v-.007a78.861 78.861 0 0 1-1.081-1.466h-.006a234.359 234.359 0 0 1-4.948-6.948v-.006a199.888 199.888 0 0 1-1.801-2.655 269.707 269.707 0 0 1-1.763-2.681h-.006c-.6-.923-1.195-1.85-1.782-2.781-.032-.051-.064-.095-.089-.139a171.15 171.15 0 0 1-1.719-2.769c-.455-.74-.903-1.473-1.34-2.213-.303-.499-.6-.992-.89-1.498-.108-.171-.203-.341-.297-.506a362.432 362.432 0 0 1-1.985-3.439 255.558 255.558 0 0 1-2.262-4.084c-.303-.562-.606-1.131-.903-1.7a9.53 9.53 0 0 1-.297-.557c-.354-.67-.708-1.34-1.056-2.016-.347-.67-.695-1.347-1.036-2.023-.341-.677-.683-1.353-1.017-2.036a173.26 173.26 0 0 1-.752-1.542 1.31 1.31 0 0 1-.07-.133c-.114-.24-.234-.474-.341-.714a.429.429 0 0 1-.057-.12 89.991 89.991 0 0 1-.758-1.587c-.329-.683-.645-1.372-.96-2.061-.228-.48-.443-.967-.664-1.454-.316-.683-.626-1.372-.93-2.067-.322-.715-.631-1.435-.94-2.156a19.19 19.19 0 0 1-.235-.544 188.626 188.626 0 0 1-1.523-3.622c-.41-.992-.81-1.987-1.2-2.984-.373-.929-.736-1.86-1.087-2.794l-.133-.341v-.007a252.456 252.456 0 0 1-12.41-44.542v-.007a252.886 252.886 0 0 1-3.363-26.222c-.037-.48-.07-.961-.1-1.441a251.049 251.049 0 0 1-.614-17.916c0-2.661.043-5.31.127-7.946A252.386 252.386 0 0 1 107.24-13.51a245.548 245.548 0 0 1 4.651-5.6C158.363-73.516 227.457-108 304.601-108c90.194 0 169.386 47.14 214.283 118.14a234.741 234.741 0 0 1 6.711 11.24A252.349 252.349 0 0 1 558 145.5Z"/><path fill="#E6E6E6" d="M29.038 173.372C7.433 153.919-5.649 122.985 2.39 95.041a133.927 133.927 0 0 0 75.417 52.621c11.796 3.076 25.237 5.268 32.414 15.126 4.466 6.134 5.502 14.24 4.446 21.754-1.058 7.514-4.012 14.611-6.94 21.611l.155 1.888c-28.532-5.554-57.238-15.217-78.844-34.669Z"/><path fill="#fff" d="M2.993 95.13c5.492 23.173 18.419 44.742 36.558 60.221 3.921 3.346 8.19 6.4 12.98 8.374a28.263 28.263 0 0 0 14.777 1.736c4.67-.608 9.375-1.77 14.111-1.231 4.991.567 9.162 3.365 12.075 7.394 3.564 4.93 5.145 10.846 6.49 16.686 1.494 6.484 2.943 13.243 7.222 18.542.519.642-.507 1.409-1.025.768-7.445-9.22-6.427-21.982-11.819-32.17-2.515-4.754-6.479-8.778-11.938-9.777-4.773-.873-9.627.321-14.349.977-4.959.689-9.756.523-14.513-1.158-4.866-1.72-9.264-4.612-13.254-7.844a111.068 111.068 0 0 1-23.04-25.971A116.566 116.566 0 0 1 1.72 95.276c-.19-.8 1.085-.941 1.273-.146Z"/><path fill="#fff" d="M33.39 150.63a17.172 17.172 0 0 1-22.234.429c-.637-.524.147-1.538.785-1.013a15.9 15.9 0 0 0 20.681-.442c.616-.549 1.38.48.768 1.026ZM64.982 166.08a33.124 33.124 0 0 0-7.179-23.04c-.516-.644.51-1.411 1.026-.768a34.453 34.453 0 0 1 7.421 23.99c-.06.824-1.328.637-1.268-.182ZM11.725 120.238a9.716 9.716 0 0 0 4.887-7.826c.05-.825 1.318-.637 1.268.182a10.9 10.9 0 0 1-5.387 8.67.66.66 0 0 1-.897-.129.644.644 0 0 1 .129-.897Z"/><path fill="#E6E6E6" d="M92.62 55.728a92.83 92.83 0 0 0-.043 1.554 128.13 128.13 0 0 0 1.117 20.746c.064.532.136 1.071.215 1.6a135.057 135.057 0 0 0 16.139 47.016 131.062 131.062 0 0 0 11.128 16.522c5.693 7.205 12.44 14.564 15.337 22.982.312.874.57 1.768.771 2.675l-27.112 38.883c-.106.057-.204.121-.31.179l-1.011 1.602c-.232-.254-.466-.523-.698-.777-.135-.147-.263-.302-.398-.449a6.412 6.412 0 0 0-.261-.288 1.319 1.319 0 0 1-.079-.094c-.085-.086-.155-.175-.232-.254a430.332 430.332 0 0 1-3.921-4.53c-.008-.006-.008-.006-.011-.021-9.866-11.62-18.85-24.166-25.643-37.677-.204-.406-.418-.819-.61-1.243a125.156 125.156 0 0 1-7.548-18.97 110.647 110.647 0 0 1-2.696-10.863 92.016 92.016 0 0 1-.972-28.742c2.364-19.082 10.803-37.196 25.69-48.963.382-.3.757-.593 1.147-.888Z"/><path fill="#fff" d="M93.052 56.16c-9.562 21.81-12.22 46.818-7.054 70.102 1.118 5.034 2.689 10.043 5.325 14.504a28.28 28.28 0 0 0 10.754 10.287c4.094 2.327 8.551 4.233 12.008 7.516 3.643 3.459 5.289 8.205 5.19 13.177-.12 6.082-2.419 11.759-4.859 17.232-2.71 6.077-5.62 12.346-5.393 19.154.028.825-1.254.82-1.281-.004-.396-11.846 8.098-21.422 9.924-32.804.853-5.312.11-10.912-3.647-14.997-3.286-3.572-7.88-5.542-12.046-7.863-4.373-2.436-8.103-5.459-10.89-9.666-2.85-4.304-4.621-9.262-5.862-14.246a111.14 111.14 0 0 1-2.766-34.613 116.58 116.58 0 0 1 9.493-38.43c.33-.753 1.432-.098 1.104.651Z"/><path fill="#fff" d="M83.92 118.78a17.167 17.167 0 0 1-11.403-3.214 17.18 17.18 0 0 1-6.609-9.835c-.193-.801 1.043-1.139 1.236-.336a15.91 15.91 0 0 0 6.154 9.154 15.896 15.896 0 0 0 10.626 2.95c.821-.068.812 1.214-.005 1.281ZM99.846 150.147a33.127 33.127 0 0 0 8.134-22.72c-.025-.825 1.256-.82 1.281.004a34.452 34.452 0 0 1-8.512 23.625c-.545.621-1.445-.291-.903-.909ZM84.912 81.466a9.717 9.717 0 0 0 8.612-3.306c.537-.628 1.436.286.903.91a10.895 10.895 0 0 1-9.519 3.677.662.662 0 0 1-.639-.642.644.644 0 0 1 .643-.64Z"/><path fill="#E6E6E6" d="M340.301 58.321c3.766-20.84-2.493-44.486-19.58-56.987a97.597 97.597 0 0 1-19.96 63.945c-5.42 7.034-12.181 14.293-11.918 23.171.164 5.524 3.181 10.653 7.139 14.508 3.959 3.855 8.824 6.622 13.63 9.346l.753 1.156c13.95-15.928 26.169-34.3 29.936-55.139Z"/><path fill="#fff" d="M320.413 1.654a83.43 83.43 0 0 1 5.801 50.983 35.917 35.917 0 0 1-3.739 10.612 20.6 20.6 0 0 1-7.735 7.593c-2.959 1.734-6.186 3.164-8.672 5.587a12.607 12.607 0 0 0-3.656 9.645c.146 4.428 1.873 8.54 3.702 12.503 2.031 4.399 4.21 8.937 4.109 13.897-.012.601.921.585.933-.015.176-8.63-6.1-15.523-7.538-23.795-.671-3.86-.183-7.944 2.514-10.955 2.359-2.632 5.686-4.11 8.697-5.84a21.972 21.972 0 0 0 7.839-7.142 33.204 33.204 0 0 0 4.134-10.43 80.969 80.969 0 0 0 1.686-25.232 84.906 84.906 0 0 0-7.277-27.895c-.248-.545-1.044-.058-.798.484Z"/><path fill="#fff" d="M327.657 47.168c2.96.191 5.892-.676 8.272-2.448a12.513 12.513 0 0 0 4.72-7.225c.133-.585-.77-.82-.903-.233a11.59 11.59 0 0 1-4.395 6.724 11.576 11.576 0 0 1-7.709 2.25c-.599-.042-.581.891.015.932ZM316.355 70.16a24.118 24.118 0 0 1-6.138-16.467c.01-.601-.923-.585-.933.015a25.09 25.09 0 0 0 6.422 17.123c.403.447 1.049-.226.649-.67ZM326.58 20.005a7.073 7.073 0 0 1-6.303-2.326c-.396-.452-1.042.222-.648.67a7.927 7.927 0 0 0 6.967 2.589.482.482 0 0 0 .458-.474.465.465 0 0 0-.474-.46Z"/><path fill="#E6E6E6" d="M251.246 18.958c.24.29.479.579.717.876a93.237 93.237 0 0 1 8.606 12.442c.201.335.399.678.59 1.018a98.36 98.36 0 0 1 11.669 34.269 95.657 95.657 0 0 1 .96 14.477c-.067 6.688-.67 13.935 1.415 20.074.21.643.46 1.273.748 1.885l32.945 10.289c.087-.015.172-.021.258-.035l1.297.471c.02-.25.035-.509.055-.759.012-.145.017-.292.029-.436.006-.098.011-.195.022-.282.002-.033.004-.065.004-.09.01-.087.011-.17.019-.25.09-1.449.169-2.901.238-4.357.003-.007.003-.007-.002-.017.499-11.092.078-22.323-2.034-33.133-.064-.326-.125-.658-.203-.988a91.293 91.293 0 0 0-4.112-14.29 80.72 80.72 0 0 0-3.291-7.456 66.986 66.986 0 0 0-12.254-16.982c-9.869-9.931-22.803-16.595-36.62-16.726-.354-.003-.7-.004-1.056 0Z"/><path fill="#fff" d="M284.366 51.379a12.516 12.516 0 0 0 4.552-15.55c-.247-.547-1.109-.19-.862.359a11.592 11.592 0 0 1-4.264 14.455c-.503.327.073 1.062.574.736ZM289.179 76.542a24.11 24.11 0 0 1-14.812-9.451c-.353-.486-1.089.088-.735.574a25.074 25.074 0 0 0 15.433 9.803c.59.115.702-.812.114-.926ZM267.158 30.338a7.083 7.083 0 0 1-6.432 1.94c-.589-.123-.699.804-.114.926a7.926 7.926 0 0 0 7.12-2.13.483.483 0 0 0 .081-.655.47.47 0 0 0-.655-.081Z"/><path fill="#3F3D56" d="M82.954 130.971c4.562 0 8.936 1.812 12.16 5.039a17.206 17.206 0 0 1 5.038 12.165 17.203 17.203 0 0 1-13.904 16.886v28.138H75.27v-62.228h7.684Z"/><path fill="#9E616A" d="M131.852 134.654c12.589 0 22.795-10.21 22.795-22.805 0-12.594-10.206-22.804-22.795-22.804-12.59 0-22.795 10.21-22.795 22.804 0 12.595 10.205 22.805 22.795 22.805ZM215.421 172.589a8.688 8.688 0 0 0-7.241 1.243 8.681 8.681 0 0 0-3.697 6.353l-18.94 5.922.79 12.392 26.63-8.739a8.722 8.722 0 0 0 5.85-2.064 8.738 8.738 0 0 0 1.644-11.484 8.731 8.731 0 0 0-5.036-3.623Z"/><path fill="#6C63FF" d="m203.063 193.095-14.155 5.36-.362.702a7.15 7.15 0 0 1-6.942 3.847 7.131 7.131 0 0 1-2.678-.77l-31.818 12.047s-14.209-14.224-24.325-26.919l3.448-21.215a40.66 40.66 0 0 1 5.007-13.963c20.747 4.551 32.656 33.564 32.656 33.564l37.39-7.137 1.779 14.484Z"/><path fill="#2F2E41" d="M128.613 133.435c-5.707 1.542-11.998-.508-16.452-4.396-4.453-3.889-7.239-9.399-8.844-15.09-1.176-4.168-1.733-8.795.122-12.708 1.855-3.914 6.848-6.554 10.7-4.577-2.376-2.77-1.189-7.35 1.586-9.72 2.776-2.37 6.587-3.049 10.216-3.42 5.268-.54 10.709-.6 15.722 1.108 5.012 1.707 9.567 5.44 11.135 10.499a7.986 7.986 0 0 0 9.527-2.152 7.236 7.236 0 0 1-3.987 7.85l7.68-2.491c1.321 2.797-.993 6.258-3.953 7.154-2.959.896-6.154-.083-8.963-1.377-2.808-1.294-5.53-2.93-8.581-3.435-3.05-.505-6.634.476-8.045 3.228-.739 1.442-.778 3.131-1.207 4.693-.429 1.562-1.516 3.182-3.13 3.31-1.02.08-2.019-.463-3.036-.352a3.27 3.27 0 0 0-2.562 2.504 9.606 9.606 0 0 0-.009 3.781l1.951 14.918.13.673Z"/><path fill="#6C63FF" d="m157.252 246.79-1.207-1.814-8.809-13.219-.177-.259 2.724-14.135.847-4.413 1.851-9.602-.537-21.981-.386-15.551-.056-2.44-1.953-5.955a21.44 21.44 0 0 0-11.375-12.713l-13.143-6.019a6.41 6.41 0 0 0-8.651 3.572c-1.801.247-9.618 1.562-16.247 6.708a24.688 24.688 0 0 0-9.15 14.299c-.013.044-.02.089-.032.133-.878 3.926-1.535 10.121-1.959 18.516-.284 5.551-.463 12.054-.537 19.509a283.69 283.69 0 0 0 2.547 40.705c.133.987 1.08 1.928 1.997 2.832.84.829 1.706 1.688 1.826 2.466.107.683-.329 1.397-.847 2.143-.063.095-.133.19-.196.284-.644.917-1.308 1.872-1.137 2.877.398 2.263.632 4.564.853 6.789a71.88 71.88 0 0 0 1.327 9.116c.221.923.474 1.853.758 2.782.664 2.181 1.466 4.355 2.25 6.48.676 1.845 1.377 3.742 1.971 5.613.114.348.222.689.323 1.031l.05.177.183.031h.013c.249-.444.546-.859.885-1.239a.243.243 0 0 1 .057-.063 6.04 6.04 0 0 1 .303-.341c1.384-1.511 4.392-4.223 10.976-8.794a265.644 265.644 0 0 1 4.967-3.338c6.768-4.431 16.222-10.203 29.429-17.656 3.311-1.871 6.864-3.85 10.66-5.936l-.398-.595ZM432.352 222.229l4.807 2.931 21.592 13.172a12.739 12.739 0 0 0 9.61 1.615 12.728 12.728 0 0 0 7.936-5.656l.007-.012a12.466 12.466 0 0 0 1.588-8.797l-9.597-47.965a13.302 13.302 0 0 0-11.826-10.786c-1.907-.18-3.83.054-5.638.686a12.672 12.672 0 0 0-7.992 15.394l10.035 34.04-15.382-7.174-5.14 12.552Z"/><path fill="#FFB6B6" d="M458.237 139.89c11.293 0 20.448-9.362 20.448-20.912 0-11.549-9.155-20.912-20.448-20.912-11.293 0-20.448 9.363-20.448 20.912 0 11.55 9.155 20.912 20.448 20.912Z"/><path fill="#6C63FF" d="M506.791 230.48a8.58 8.58 0 0 0-.12-.702c-.486-2.566-1.75-5.082-2.97-7.522-1.163-2.327-2.269-4.527-2.723-6.714-.449-2.156-.184-4.318.075-6.404.278-2.263.569-4.602-.082-6.872a168.614 168.614 0 0 0-13.523-33.416 25.392 25.392 0 0 0-21.074-17.739 5.995 5.995 0 0 0 .676-3.451 5.863 5.863 0 0 0-2.155-3.964 5.638 5.638 0 0 0-4.164-1.214l-9.504 1.068a5.83 5.83 0 0 0-5.062 6.455c.053.47.159.932.316 1.378-8.822 11.24-13.352 21.481-13.77 31.166v.006a33.463 33.463 0 0 0 2.345 13.895 44.932 44.932 0 0 0 6.294 10.829c.531.671 1.08 1.328 1.649 1.973a45.828 45.828 0 0 0 1.782 1.991l1.662 2.605 1.548 2.434 8.278 19.11 4.215-.139.588 4.204.139.98 2.73 9.779.202.734 3.735-1.777 22.281-10.582 16.657-7.915-.025-.196Z"/><path fill="#000" d="M435.306 196.35a44.735 44.735 0 0 0 7.9 12.724c.57.681 1.172 1.35 1.803 2.021l3.234 5.077c11.924-8.941 21.585-44.146 21.585-44.146l-13.454-2.618-21.068 26.942Z" opacity=".2"/><path fill="#FFB6B6" d="M427.161 141.843a8.997 8.997 0 0 1-3.036 12.17 8.625 8.625 0 0 1-1.28.628l.953 31.358-13.574-8.549 1.176-28.467a8.971 8.971 0 0 1 3.861-10.244 8.577 8.577 0 0 1 11.9 3.104Z"/><path fill="#6C63FF" d="m424.991 174.162-14.928 2.124.642 30.924a12.942 12.942 0 0 0 6.323 10.905 12.395 12.395 0 0 0 14.804-1.682l35.242-33.911a13.372 13.372 0 0 0 .984-18.356 12.669 12.669 0 0 0-18.155-1.244c-.349.312-.68.642-.993.989l-23.27 26.781-.649-16.53Z"/><path fill="#2F2E41" d="M512.953 109.909c-3.475-4.054-5.128-9.434-7.906-14.039-2.779-4.604-7.614-8.725-12.722-7.654-3.522.739-6.243 3.848-7.621 7.313-1.377 3.466-1.635 7.287-1.877 11.032.086-7.695-4.982-15.154-11.962-17.609-6.979-2.455-15.333.284-19.719 6.465a10.655 10.655 0 0 0-14.156-.297c-3.923 3.507-4.791 10.184-1.906 14.658 2.885 4.474 9.134 6.141 13.719 3.66l1.621 1.491c-.913 3.193.857 6.964 3.831 8.166 2.412.974 5.817.812 6.72 3.344.631 1.77-.548 3.658-1.802 5.018-1.254 1.359-2.743 2.763-2.894 4.645-.227 2.838 2.705 4.827 5.371 5.426 6.427 1.444 13.559-1.534 17.264-7.208.071-.11.149-.219.233-.329a24.831 24.831 0 0 0 4.992-18.986c-.208-1.312.002-2.287.906-2.598 3.906-1.342 14.852 1.475 18.165 4.022 3.313 2.546 5.966 5.917 9.157 8.628 3.191 2.711 7.257 4.802 11.308 4.064 3.245-.592 6.006-2.948 7.863-5.791 1.856-2.843 2.925-6.156 3.882-9.449-7.175 4.146-16.996 2.411-22.467-3.972Z"/><path fill="#3F3D56" d="m241.376 180.505 7.318 32.212 4.676 5.124h3.374l-13.904-58.568-.688 9.95v.007l-.776 11.275Z"/><path fill="#000" d="M242.152 169.223v.007l11.907 48.611h2.686l-13.905-58.568-.688 9.95Z" opacity=".17"/><path fill="#3F3D56" d="m260.829 33.187-1.744-.234a1.829 1.829 0 0 0-1.346.36l-1.042.803-11.609 14.527a1.831 1.831 0 0 0-.695 1.214l-.651 4.944-16.202 123.33c-.058.457.057.919.322 1.295l7.634 21.052.227.328.493.702c.254.357.626.612 1.049.721l1.106.278a1.825 1.825 0 0 0 1.479-.266 1.794 1.794 0 0 0 .783-1.276l1.978-15.033v-.007l1.264-9.647 1.068-8.136v-.006l17.466-132.901a1.828 1.828 0 0 0-1.571-2.047l-.009-.001Z"/><path fill="#000" d="m256.694 34.117-21.2 166.363.23.326.492.7a1.85 1.85 0 0 0 1.049.721l1.107.278a1.833 1.833 0 0 0 2.262-1.541l21.773-165.727a1.834 1.834 0 0 0-1.576-2.053l-1.748-.23a1.806 1.806 0 0 0-1.347.362l-1.042.8Z" opacity=".17"/><path fill="#6C63FF" d="m256.07 38.873-11.25 16.064-13.372 101.78 7.25 14.388L256.07 38.873Z"/><path fill="#3F3D56" d="m365.655 180.505-7.318 32.212-4.676 5.124h-3.374l13.905-58.568.687 9.95v.007l.776 11.275Z"/><path fill="#000" d="M364.879 169.223v.007l-11.906 48.611h-2.686l13.905-58.568.687 9.95Z" opacity=".17"/><path fill="#3F3D56" d="M379.492 178.13 362.638 49.857a1.824 1.824 0 0 0-.695-1.214l-11.602-14.527-1.042-.803a1.852 1.852 0 0 0-1.353-.36l-1.744.233a1.83 1.83 0 0 0-1.58 2.049l17.467 132.907v.006l1.068 8.13 1.27 9.653v.013l1.971 15.02a1.792 1.792 0 0 0 .79 1.277 1.814 1.814 0 0 0 1.473.266l1.105-.278c.424-.11.796-.365 1.049-.721l.493-.702.228-.329 7.633-21.051c.268-.375.383-.838.323-1.296Z"/><path fill="#000" d="m350.338 34.116 21.2 166.364-.231.326-.491.7a1.85 1.85 0 0 1-1.049.721l-1.108.278a1.833 1.833 0 0 1-2.261-1.541L344.625 35.237a1.83 1.83 0 0 1 1.575-2.053l1.749-.23a1.808 1.808 0 0 1 1.347.362l1.042.8Z" opacity=".17"/><path fill="#6C63FF" d="m350.963 38.873 11.25 16.064 13.371 101.78-7.249 14.388-17.372-132.232Z"/><path fill="#3F3D56" d="M520.418 138.293a17.183 17.183 0 0 0-12.16 5.039 17.206 17.206 0 0 0-5.037 12.165 17.21 17.21 0 0 0 13.904 16.886v28.138h10.977v-62.228h-7.684Z"/><path fill="#6C63FF" d="m203.875 218.046-20.368-.254-2.578-.035-41.439-.523s-11.254-10.74-21.052-21.797l1.373-9.938a40.615 40.615 0 0 1 13.608-25.14c14.035 9.382 22.173 27.951 22.173 27.951l13.647 6.109a59.723 59.723 0 0 1 27.28 7.992l4.487 2.601 2.869 13.034Z"/><path fill="#fff" d="M404.316 6.403c.185-.034.371-.06.556-.093a15.102 15.102 0 0 1-2.189-1.65l1.633 1.743ZM525.595 21.381a621.999 621.999 0 0 1-25.517 1.51c-6.502.352-13.018.308-19.514-.132-14.275-1.207-26.503-5.69-40.12-8.142-12.481-2.244-27.647-3.325-35.571-8.307 20.48-3.546 41.7 3.673 62.819 6.36a149.946 149.946 0 0 0 51.192-2.529 235.622 235.622 0 0 1 6.711 11.24ZM335.12 116.209c-19.822-68.065-31.489-138.245-31.489-209.14v-5.137h-6.586v5.138c0 70.895-11.668 141.074-31.49 209.139a36.247 36.247 0 0 0-1.442 10.141 9.894 9.894 0 0 0 2.894 6.989 9.886 9.886 0 0 0 6.986 2.894h13.172a13.178 13.178 0 0 0 13.173 13.178 13.175 13.175 0 0 0 9.314-3.859 13.178 13.178 0 0 0 3.858-9.319h10.25v28.403a5.661 5.661 0 0 0-4.052 9.439 5.66 5.66 0 0 0 9.824-2.992 5.665 5.665 0 0 0-4.508-6.342v-28.508h1.659a9.876 9.876 0 0 0 6.985-2.894 9.887 9.887 0 0 0 2.894-6.989 36.21 36.21 0 0 0-1.442-10.141Z"/></g><defs><clipPath id="dossiers-a"><path fill="#fff" d="M0-108h558v507H0z"/></clipPath></defs></svg>
