<svg xmlns="http://www.w3.org/2000/svg" width="132" height="132" fill="none">
  <g clip-path="url(#a)">
    <path fill="#E6E6E6" d="m98.2 94.678-54.42 18.125a2.734 2.734 0 0 1-2.06-.137 2.67 2.67 0 0 1-1.359-1.53L15.153 37.635a2.626 2.626 0 0 1 .139-2.03 2.688 2.688 0 0 1 1.553-1.34l54.42-18.125a2.736 2.736 0 0 1 2.06.137c.64.313 1.129.863 1.359 1.53L99.892 91.31a2.626 2.626 0 0 1-.14 2.03 2.688 2.688 0 0 1-1.552 1.34Z"/>
    <path fill="#fff" d="m96.811 93.32-52.763 17.574a1.85 1.85 0 0 1-1.39-.092 1.809 1.809 0 0 1-.92-1.034L17.09 37.899a1.775 1.775 0 0 1 .094-1.371 1.817 1.817 0 0 1 1.05-.905L70.995 18.05a1.85 1.85 0 0 1 1.392.092c.433.211.763.583.918 1.034l24.648 71.868c.154.452.12.945-.094 1.371a1.816 1.816 0 0 1-1.049.906Z"/>
    <path fill="#CCC" d="M83.547 115.765H26.103a2.719 2.719 0 0 1-1.906-.78 2.64 2.64 0 0 1-.791-1.878V35.52c0-.704.285-1.38.79-1.878a2.72 2.72 0 0 1 1.907-.78h57.444a2.721 2.721 0 0 1 1.907.78 2.64 2.64 0 0 1 .79 1.878v77.587a2.64 2.64 0 0 1-.79 1.878 2.719 2.719 0 0 1-1.907.78Z"/>
    <path fill="#fff" d="M82.672 114.041H26.978a1.84 1.84 0 0 1-1.288-.527 1.783 1.783 0 0 1-.535-1.269V36.383c0-.476.193-.933.535-1.27a1.838 1.838 0 0 1 1.288-.526h55.694c.484 0 .947.19 1.288.526.342.337.534.794.535 1.27v75.862c0 .476-.193.933-.535 1.269a1.84 1.84 0 0 1-1.288.527Z"/>
    <path fill="#CCC" d="M70.808 56.106H34.023c-.31 0-.607-.121-.826-.337a1.143 1.143 0 0 1 0-1.628c.219-.216.516-.338.826-.338h36.785c.31 0 .607.122.826.338a1.143 1.143 0 0 1 0 1.628 1.176 1.176 0 0 1-.826.337Zm4.82 3.886H34.023a1.183 1.183 0 0 1-.826-.337 1.152 1.152 0 0 1-.343-.814 1.137 1.137 0 0 1 .343-.814 1.17 1.17 0 0 1 .826-.337h41.605c.31 0 .607.12.826.337a1.143 1.143 0 0 1 0 1.628c-.22.216-.516.337-.826.337Z"/>
    <path fill="#6C63FF" d="M70.808 73.522H34.023c-.31 0-.607-.122-.826-.338a1.143 1.143 0 0 1 0-1.627c.22-.216.516-.337.826-.338h36.785c.31 0 .607.122.826.338a1.143 1.143 0 0 1 0 1.628c-.22.216-.516.337-.826.337Z"/>
    <path fill="#CCC" d="M75.627 77.408H34.023c-.31 0-.607-.121-.826-.337a1.143 1.143 0 0 1 0-1.628c.22-.216.516-.337.826-.337h41.604c.31 0 .608.12.827.337a1.143 1.143 0 0 1 0 1.628 1.18 1.18 0 0 1-.827.337Zm-4.819 13.53H34.023c-.31 0-.607-.122-.826-.338a1.143 1.143 0 0 1 0-1.627c.22-.216.516-.338.826-.338h36.785c.31 0 .607.121.826.337a1.143 1.143 0 0 1 0 1.628c-.22.216-.516.338-.826.338Zm4.82 3.886H34.023c-.31 0-.607-.121-.826-.337a1.143 1.143 0 0 1 0-1.629c.219-.216.516-.337.826-.337h41.605c.31 0 .607.121.826.337a1.143 1.143 0 0 1 0 1.629c-.22.216-.516.337-.826.337Z"/>
  </g>
  <path fill="#6C63FF" d="M91.294 54C103.282 54 113 44.282 113 32.294s-9.718-21.706-21.706-21.706-21.706 9.718-21.706 21.706S79.306 54 91.294 54Z"/>
  <path fill="#fff" d="M94.713 33.015V21.04h-6.167v11.975h-2.879l2.98 5.163 2.983 5.164 2.981-5.164 2.982-5.164h-2.88Z"/>
  <defs>
    <clipPath id="a">
      <path fill="#fff" d="M0 0h85v100H0z" transform="translate(15 16)"/>
    </clipPath>
  </defs>
</svg>
