<svg xmlns="http://www.w3.org/2000/svg" width="558" height="178" fill="none"><path fill="#3F3D56" d="M495.971-36.03A133.837 133.837 0 0 0 403.826-78V56.116l92.145-92.145Z"/><path fill="#E4E4E4" d="m495.971-19.331-92.145 92.145h128.775a133.767 133.767 0 0 0-36.63-92.145Z"/><path fill="#F0F0F0" d="M532.739 82.45a134.55 134.55 0 0 1-2.689 26.855 133.14 133.14 0 0 1-15.535 40.71c-.392.678-.797 1.355-1.202 2.019v.006a134.647 134.647 0 0 1-26.954 31.887c-.525.458-1.049.91-1.58 1.355a133.648 133.648 0 0 1-80.956 31.282V82.451h128.916Z"/><path fill="#CACACA" d="M390.799 216.682c1.782 0 3.554-.046 5.32-.115V82.447l-97.537 97.538a133.767 133.767 0 0 0 92.217 36.697Z"/><path fill="#6C63FF" d="M390.981-61.42c-74.135 0-134.234 60.098-134.234 134.234H396.44V-61.301c-1.811-.072-3.629-.12-5.459-.12ZM358.957 82.45l-28.222 28.223-.923.923-.02.02-24.611 24.604-.935.936-26.59 26.589-.936.936v.007l-15.302 15.296A133.838 133.838 0 0 1 219.4 82.451h139.557Z"/><path fill="#FFB6B6" d="M140.005 204.619a8.218 8.218 0 0 0 1.905-12.454l1.108-60.373-13.231 1.109.031 58.857a8.262 8.262 0 0 0 4.422 13.961 8.262 8.262 0 0 0 5.765-1.1Z"/><path fill="#E4E4E4" d="m145.104 146.571-17.304-1.649a3.436 3.436 0 0 1-2.481-1.436 3.44 3.44 0 0 1-.534-2.816l4.155-16.824a9.56 9.56 0 0 1 10.445-8.551 9.556 9.556 0 0 1 8.58 10.421l.902 17.251a3.442 3.442 0 0 1-2.307 3.429 3.43 3.43 0 0 1-1.456.175Z"/><path fill="#FFB6B6" d="m170.103 153.64 4.381 27.93-41.623.548 5.477-26.835 31.765-1.643Z"/><path fill="#2F2E41" d="M173.275 174.75c13.207 23.005 14.335 101.011 14.9 181.579h-11.227L150.112 238.8l-24.644 114.461h-10.953l7.667-128.7s-2.261-25.831 9.31-41.074l2.817-8.138 38.966-.599Z"/><path fill="#E4E4E4" d="M139.766 169.065a3.741 3.741 0 0 1-3.722-3.463c-.412-5.636-2.452-15.448-6.063-29.163a23.076 23.076 0 0 1 9.599-25.094 23.084 23.084 0 0 1 26.848.991 22.784 22.784 0 0 1 8.791 15.581c1.795 15.807-1.589 31.678-3.127 37.767a3.749 3.749 0 0 1-3.555 2.826l-28.692.554-.079.001Z"/><path fill="#FFB6B6" d="M219.924 118.356a8.04 8.04 0 0 0-.423 1.195l-35.914 12.204-6.939-6.063-10.518 9.277 11.242 11.927a6.12 6.12 0 0 0 7.235 1.252l38.43-19.63a8.03 8.03 0 1 0-3.113-10.162Z"/><path fill="#E4E4E4" d="m182.335 132.422-13.092 11.435a3.441 3.441 0 0 1-5.16-.732l-9.364-14.582a9.562 9.562 0 0 1 .967-13.465 9.562 9.562 0 0 1 13.467.932l13.15 11.201a3.443 3.443 0 0 1 .032 5.211Z"/><path fill="#FFB6B6" d="M164.75 94.816c4.662-8.529 1.528-19.222-7.001-23.883-8.528-4.663-19.221-1.528-23.883 7-4.662 8.528-1.528 19.221 7.001 23.883 8.528 4.662 19.221 1.528 23.883-7Z"/><path fill="#2F2E41" d="M154.153 62.017h-3.569a17.648 17.648 0 0 0-6.174-.784 16.239 16.239 0 0 0-14.574 11.683c-3.99 13.32-2.267 28.057-2.267 28.057 5.825 2.634 14.726 4.584 27.873 2.98l1.933-8.103-.161 7.862a95.791 95.791 0 0 0 5.8-.999V85.378h8.055c0-12.906-4.011-23.361-16.916-23.361Z"/><path fill="#3F3D56" d="M276.721 164.687a121.685 121.685 0 0 1-35.983-82.188l2.654-.096a119.038 119.038 0 0 0 35.201 80.4l-1.872 1.884Zm28.487-28.441-1.925 1.819a122.092 122.092 0 0 1-30.035-55.302l1.288-.312h1.368a119.497 119.497 0 0 0 29.278 53.769l.026.026Zm25.6-25.48-.996.83-.02.02-1.022.849a122.018 122.018 0 0 1-18.231-29.483l1.215-.531h1.454a119.225 119.225 0 0 0 17.527 28.222.83.83 0 0 0 .073.093Z"/></svg>