<svg width="558" height="178" viewBox="0 0 558 178" fill="none" xmlns="http://www.w3.org/2000/svg">
    <path d="M201.456 -17.6009C201.442 -9.73631 199.098 -2.05246 194.721 4.47897C190.344 11.0104 184.131 16.0961 176.866 19.0928C169.601 22.0896 161.612 22.8629 153.908 21.3149C146.205 19.7669 139.133 15.9672 133.586 10.3962C128.04 4.82525 124.269 -2.26676 122.75 -9.98296C121.23 -17.6992 122.031 -25.693 125.051 -32.9536C128.071 -40.2142 133.174 -46.4155 139.715 -50.7732C146.256 -55.1309 153.941 -57.4494 161.798 -57.4355C167.019 -57.4398 172.19 -56.4113 177.012 -54.4092C181.835 -52.4072 186.215 -49.4709 189.9 -45.7692C193.585 -42.0675 196.503 -37.6734 198.486 -32.8393C200.47 -28.0053 201.479 -22.8266 201.456 -17.6009Z" fill="#F2F2F2"/>
    <path d="M143.315 -30.6074C144.957 -35.8475 148.693 -40.6536 153.859 -42.425C159.026 -44.1965 166.591 -41.498 170.475 -37.6235C177.58 -30.5362 179.314 -6.1889 174.433 1.50512C173.462 1.45368 170.112 1.41562 169.129 1.37878L167.739 -3.2586V1.33308C166.173 1.28466 164.595 1.25122 163.005 1.23279C157.674 1.16662 152.577 -0.965748 148.784 -4.71603C144.991 -8.46631 142.798 -13.5424 142.667 -18.8771C142.54 -23.9806 142.667 -28.5424 143.315 -30.6074Z" fill="#CCCCCC"/>
    <path d="M191.209 8.64111C184.326 16.4798 174.64 21.2949 164.241 22.0472C153.842 22.7994 143.564 19.4283 135.627 12.6617L139.034 3.1448C139.805 1.45448 141.02 0.00583744 142.55 -1.04579C144.08 -2.09742 145.867 -2.71236 147.72 -2.82468L149.888 -2.95788L155.057 -7.42014C155.057 -7.42014 168.985 -7.91789 168.778 -8.15625L177.215 -3.07711L177.208 -3.11217L180.524 -2.90886C182.377 -2.79702 184.164 -2.18226 185.694 -1.13057C187.225 -0.0788784 188.44 1.37004 189.209 3.06067L191.209 8.64111Z" fill="#CCCCCC"/>
    <path d="M162.011 204.716C183.952 204.716 201.739 186.913 201.739 164.952C201.739 142.991 183.952 125.188 162.011 125.188C140.07 125.188 122.283 142.991 122.283 164.952C122.283 186.913 140.07 204.716 162.011 204.716Z" fill="#F2F2F2"/>
    <path d="M145.797 149.397C145.252 152.33 144.358 155.186 143.134 157.905C136.126 172.744 156.084 167.907 163.216 167.907C171.014 167.907 178.475 172.012 177.335 153.775C176.849 145.985 171.014 139.643 163.216 139.643C156.555 139.643 147.19 142.606 145.797 149.397Z" fill="#CCCCCC"/>
    <path d="M162.048 167.904C168.385 167.904 173.522 162.762 173.522 156.42C173.522 150.077 168.385 144.936 162.048 144.936C155.711 144.936 150.574 150.077 150.574 156.42C150.574 162.762 155.711 167.904 162.048 167.904Z" fill="#CCCCCC"/>
    <path d="M154.255 144.714C156.266 143.487 158.569 142.823 160.923 142.792C163.278 142.761 165.598 143.364 167.64 144.537C169.682 145.71 171.372 147.411 172.532 149.462C173.693 151.513 174.282 153.838 174.237 156.194C168.391 157.664 162.249 158.788 156.014 156.546L154.541 152.939L153.673 156.548C151.775 157.325 149.871 157.982 147.967 156.541C147.89 154.191 148.429 151.862 149.533 149.787C150.636 147.711 152.265 145.962 154.255 144.714Z" fill="#CCCCCC"/>
    <path d="M192.901 191.393C186.019 199.232 176.332 204.047 165.933 204.799C155.534 205.551 145.257 202.18 137.319 195.414L140.727 185.897C141.497 184.206 142.712 182.758 144.242 181.706C145.772 180.655 147.559 180.04 149.412 179.927L151.58 179.794L156.749 175.332C156.749 175.332 170.677 174.834 170.47 174.596L178.907 179.675L178.9 179.64L182.216 179.843C184.069 179.955 185.857 180.57 187.387 181.621C188.917 182.673 190.132 184.122 190.902 185.813L192.901 191.393Z" fill="#CCCCCC"/>
    <path d="M332.931 168.374C368.456 168.374 397.254 139.55 397.254 103.993C397.254 68.4359 368.456 39.6113 332.931 39.6113C297.407 39.6113 268.608 68.4359 268.608 103.993C268.608 139.55 297.407 168.374 332.931 168.374Z" fill="#F2F2F2"/>
    <path d="M335.553 110.56C347.137 110.56 356.527 101.16 356.527 89.5659C356.527 77.9714 347.137 68.5723 335.553 68.5723C323.969 68.5723 314.578 77.9714 314.578 89.5659C314.578 101.16 323.969 110.56 335.553 110.56Z" fill="#CCCCCC"/>
    <path d="M354.02 75.6976C354.02 75.6976 359.481 65.2483 347.467 64.2983C347.467 64.2983 337.224 54.9987 326.784 62.5982C326.784 62.5982 321.09 62.5982 317.976 69.048C317.976 69.048 313.497 67.3479 312.513 71.8979C312.513 71.8979 309.236 81.3973 312.513 89.9468C315.79 98.4963 316.879 99.4462 316.879 99.4462C316.879 99.4462 314.58 88.8368 327.687 87.8868C340.795 86.9369 352.82 78.718 353.913 89.1673C355.005 99.6167 356.206 94.8963 356.206 94.8963C356.206 94.8963 366.581 79.9724 354.02 75.6976Z" fill="#CCCCCC"/>
    <path d="M380.949 146.802C369.805 159.493 354.122 167.289 337.285 168.507C320.448 169.725 303.808 164.267 290.957 153.312L296.474 137.903C297.721 135.166 299.688 132.821 302.166 131.118C304.643 129.415 307.537 128.42 310.536 128.238L314.046 128.022L322.415 120.797C322.415 120.797 344.966 119.991 344.631 119.605L358.291 127.829L358.279 127.772L363.649 128.102C366.649 128.283 369.543 129.278 372.02 130.981C374.498 132.684 376.465 135.029 377.711 137.767L380.949 146.802Z" fill="#CCCCCC"/>
    <path d="M226.991 104.204C248.932 104.204 266.719 86.4011 266.719 64.4399C266.719 42.4788 248.932 24.6758 226.991 24.6758C205.05 24.6758 187.263 42.4788 187.263 64.4399C187.263 86.4011 205.05 104.204 226.991 104.204Z" fill="#F2F2F2"/>
    <path d="M225.894 69.3668C232.898 69.3668 238.576 63.6838 238.576 56.6736C238.576 49.6634 232.898 43.9805 225.894 43.9805C218.891 43.9805 213.213 49.6634 213.213 56.6736C213.213 63.6838 218.891 69.3668 225.894 69.3668Z" fill="#CCCCCC"/>
    <path d="M256.795 91.0455C249.912 98.8841 240.226 103.699 229.827 104.451C219.428 105.204 209.15 101.833 201.213 95.066L204.62 85.5491C205.39 83.8588 206.606 82.4102 208.136 81.3585C209.666 80.3069 211.453 79.6919 213.306 79.5796L215.473 79.4464L220.643 74.9842C220.643 74.9842 234.571 74.4864 234.364 74.248L242.8 79.3272L242.793 79.2921L246.11 79.4954C247.963 79.6073 249.75 80.222 251.28 81.2737C252.81 82.3255 254.026 83.7744 254.795 85.465L256.795 91.0455Z" fill="#CCCCCC"/>
    <path d="M239.269 48.8004C238.198 44.9613 235.763 41.6456 232.422 39.4759C229.76 37.7714 226.437 36.9012 223.421 37.8026C220.405 38.704 217.908 41.6668 218.105 44.868C217.546 44.721 216.958 44.7335 216.406 44.9042C215.854 45.0748 215.36 45.3967 214.982 45.8334C214.225 46.7276 213.699 47.794 213.449 48.939C212.481 52.5281 212.545 56.3177 213.634 59.8719L213.574 60.3821C215.046 60.1384 216.162 58.8747 216.856 57.5282C217.55 56.1818 217.95 54.688 218.702 53.3745C219.454 52.0609 220.703 50.8892 222.194 50.8482L222.062 53.1283L225.909 51.1447C225.604 51.8749 225.299 52.6051 224.994 53.3353C226.114 52.8669 227.233 52.3985 228.353 51.9301C228.228 52.6322 228.103 53.3344 227.978 54.0365C228.271 53.427 228.685 52.8834 229.195 52.4387C229.704 51.994 230.299 51.6574 230.942 51.4493C231.585 51.2411 232.264 51.1657 232.937 51.2277C233.61 51.2896 234.264 51.4876 234.858 51.8097C236.197 52.7115 237.163 54.0704 237.574 55.6326C237.98 57.1913 238.198 58.7931 238.224 60.4039C239.954 56.7875 240.325 52.6684 239.269 48.8004Z" fill="#CCCCCC"/>
    <path d="M311.299 96.4671V96.4908C311.263 96.4038 311.24 96.3123 311.229 96.2188L311.299 96.4671Z" fill="#F2F2F2"/>
    <path d="M311.3 96.4902C311.359 96.7386 311.43 96.987 311.501 97.2235C311.404 97.25 311.305 97.2698 311.205 97.2827L311.3 96.4902Z" fill="#F2F2F2"/>
    <path d="M397.254 103.86C397.251 120.496 390.815 136.485 379.294 148.475C367.773 160.466 352.061 167.526 335.453 168.177V39.543C352.062 40.1905 367.776 47.2502 379.297 59.2413C390.819 71.2324 397.255 87.2233 397.254 103.86Z" fill="#6C63FF"/>
    <path d="M311.229 96.2188L311.299 96.4671V96.4908C311.263 96.4038 311.24 96.3123 311.229 96.2188Z" fill="#FFB6B6"/>
    <path d="M351.689 91.2862C351.693 92.9853 351.482 94.6782 351.063 96.3246V96.3365C350.118 100.05 348.157 103.426 345.399 106.084C342.641 108.742 339.196 110.577 335.453 111.381V71.1797C340.048 72.1682 344.166 74.7031 347.12 78.3617C350.075 82.0204 351.687 86.5819 351.689 91.2862Z" fill="#A0616A"/>
    <path d="M381.183 146.935C375.442 153.49 368.426 158.805 360.563 162.555C352.7 166.305 344.156 168.411 335.453 168.745V120.406C340.475 120.17 345.025 119.922 344.871 119.744L358.531 127.964L358.519 127.905L363.884 128.236C366.884 128.415 369.779 129.409 372.257 131.111C374.734 132.814 376.701 135.161 377.946 137.899L381.053 146.569L381.183 146.935Z" fill="#3F3D56"/>
    <path d="M311.3 96.4902C311.359 96.7386 311.43 96.987 311.501 97.2235C311.404 97.25 311.305 97.2698 311.205 97.2827L311.3 96.4902Z" fill="#2F2E41"/>
    <path d="M334.569 304C334.365 304.01 334.165 303.939 334.013 303.802C333.861 303.665 333.77 303.474 333.759 303.269V-107.27C333.78 -107.47 333.874 -107.656 334.024 -107.79C334.173 -107.925 334.367 -108 334.569 -108C334.77 -108 334.964 -107.925 335.114 -107.79C335.263 -107.656 335.358 -107.47 335.378 -107.27V303.269C335.367 303.474 335.276 303.665 335.124 303.802C334.972 303.939 334.773 304.01 334.569 304Z" fill="#2F2E41"/>
    <path d="M415.262 83.8991L392.887 78.4054L363.055 53.0204L368.022 45.127L395.047 62.3583C395.047 62.3583 412.926 66.9018 419.041 72.1409L415.262 83.8991Z" fill="#FFB6B6"/>
    <path d="M364.093 53.4999C367.103 53.4999 369.544 51.0572 369.544 48.0439C369.544 45.0306 367.103 42.5879 364.093 42.5879C361.082 42.5879 358.642 45.0306 358.642 48.0439C358.642 51.0572 361.082 53.4999 364.093 53.4999Z" fill="#FFB6B6"/>
    <path d="M416.312 69.2088L395.562 60.7402L385.59 72.5934L392.999 78.703L413.195 83.9567L413.21 84.0097C414.628 89.2427 423.749 92.7955 431.151 94.8544C433.593 95.5312 436.2 95.255 438.445 94.0816C440.691 92.9083 442.408 90.9253 443.248 88.5335C443.857 86.7649 443.959 84.8613 443.543 83.0378C443.127 81.2143 442.21 79.5436 440.895 78.2145L434.173 71.4683L416.312 69.2088Z" fill="#E6E6E6"/>
    <path d="M444.314 164.87C444.314 164.87 445.222 175.782 442.951 186.24C441.527 192.795 440.996 206.814 440.798 216.363C440.68 222.048 438.125 222.954 438.125 222.954L439.82 236.026L435.683 283.539L420.692 282.175L416.604 186.24L389.661 207.564L390.408 210.058C390.772 211.27 388.091 211.115 387.019 211.786L384.376 217.924C384.427 218.939 384.167 219.945 383.63 220.807C383.093 221.67 382.305 222.346 381.372 222.747L367.331 264.554L356.384 257.979L360.033 219.993L365.142 202.461L385.715 177.146L386.169 169.872L388.213 169.956L389.254 166.916L391.166 161.688L444.314 164.87Z" fill="#2F2E41"/>
    <path d="M445.099 167.163L445.18 167.049C449.504 160.99 443.001 146.43 442.02 144.32C443.185 143.942 444.182 143.171 444.843 142.139C445.504 141.107 445.787 139.878 445.644 138.661L445.221 135.063L444.78 131.535L447.938 128.375L447.946 128.296L449.763 112.382L452.405 101.813C453.401 97.8171 453.316 93.6283 452.16 89.6763C451.003 85.7243 448.817 82.1515 445.825 79.3246L439.718 73.5616L432.297 62.5703H420.329L416.225 70.3285C412.247 71.2489 408.717 73.5371 406.25 76.7945C403.784 80.0519 402.538 84.0721 402.728 88.1547L403.658 108.502L400.017 133.837L400.015 138.422L398.119 140.531C397.436 141.291 396.939 142.2 396.669 143.186C396.399 144.171 396.363 145.207 396.563 146.209L396.813 147.457C395.849 147.87 394.998 148.509 394.332 149.32C393.665 150.13 393.203 151.089 392.983 152.115L392.317 155.226C391.747 155.978 387.986 160.998 387.986 162.37C387.986 162.576 388.138 162.775 388.464 162.996C391.028 164.733 405.195 168.275 411.465 165.764C418.144 163.091 444.694 167.101 444.961 167.141L445.099 167.163Z" fill="#E6E6E6"/>
    <path d="M424.766 59.0204C433.52 59.0204 440.617 51.9175 440.617 43.1557C440.617 34.3939 433.52 27.291 424.766 27.291C416.012 27.291 408.916 34.3939 408.916 43.1557C408.916 51.9175 416.012 59.0204 424.766 59.0204Z" fill="#FFB6B6"/>
    <path d="M419.597 112.848L408.586 133.104L376.458 155.506L370.099 148.686L393.634 126.923C393.634 126.923 402.581 110.777 409.201 106.193L419.597 112.848Z" fill="#FFB6B6"/>
    <path d="M371.916 158.687C374.926 158.687 377.367 156.245 377.367 153.231C377.367 150.218 374.926 147.775 371.916 147.775C368.905 147.775 366.465 150.218 366.465 153.231C366.465 156.245 368.905 158.687 371.916 158.687Z" fill="#FFB6B6"/>
    <path d="M418.606 115.547L425.53 98.9142L423.025 89.7222C422.527 87.9195 421.535 86.2921 420.161 85.0241C418.788 83.7561 417.087 82.8979 415.251 82.5465C412.76 82.087 410.187 82.5915 408.053 83.958C405.92 85.3245 404.384 87.451 403.756 89.9076C401.86 97.3595 400.404 107.047 404.234 110.881L404.273 110.92L392.875 125.797L409.661 135.294L418.606 115.547Z" fill="#E6E6E6"/>
    <path d="M440.426 32.2246C439.137 30.4861 437.285 29.25 435.868 27.6143C435.154 26.6657 434.387 25.7583 433.571 24.8966C431.859 23.4723 429.699 22.7 427.473 22.716C425.058 22.6539 422.662 23.1617 420.48 24.1984C418.298 25.235 416.39 26.7714 414.911 28.6831C413.759 28.0072 412.607 27.3313 411.455 26.6554C411 27.8541 410.545 29.0529 410.09 30.2516C409.717 29.9267 409.241 29.7447 408.746 29.7377C408.251 29.7307 407.77 29.8993 407.387 30.2136C407.005 30.5279 406.746 30.9675 406.657 31.4546C406.567 31.9417 406.653 32.4447 406.898 32.8746C406.624 32.0268 405.369 31.847 404.676 32.407C404.356 32.7177 404.118 33.1038 403.984 33.53C403.85 33.9562 403.825 34.409 403.911 34.8474C404.053 35.817 404.481 36.7221 405.141 37.4461C405.801 38.1702 406.662 38.6802 407.613 38.9106C409.116 39.2458 410.866 38.8937 412.069 39.8558C413.033 40.6271 413.324 42.0317 414.309 42.7775C415.521 43.6966 417.236 43.2715 418.743 43.4746C420.058 43.7003 421.24 44.4109 422.056 45.4663C422.872 46.5217 423.263 47.845 423.152 49.175C423.337 48.3244 423.687 47.5186 424.183 46.8038C424.438 46.4506 424.789 46.1788 425.194 46.0213C425.6 45.8639 426.042 45.8275 426.468 45.9167C427.841 46.3287 428.066 48.2021 427.733 49.5976C426.85 53.299 423.505 59.2818 423.505 59.2818C427.849 60.9967 433.023 59.3751 436.375 56.1211C439.726 52.867 441.471 48.2593 442.232 43.6483C442.876 39.7382 442.785 35.4074 440.426 32.2246Z" fill="#2F2E41"/>
</svg>
