<svg xmlns="http://www.w3.org/2000/svg" width="411" height="178" fill="none">
  <g clip-path="url(#a)">
    <path fill="#F2F2F2" d="M280.781-28 0 138.33l8.444 14.246 280.781-166.33L280.781-28Zm61.026 13.945-280.78 166.33 8.444 14.247L350.252.192l-8.445-14.247ZM395.86 1.197l-280.781 166.33 8.445 14.247 280.78-166.33-8.444-14.247Z"/>
    <path fill="#fff" d="M182.887 166.979c48.551 0 87.909-39.347 87.909-87.883 0-48.537-39.358-87.883-87.909-87.883-48.551 0-87.909 39.346-87.909 87.883 0 48.536 39.358 87.883 87.909 87.883Z"/>
    <path fill="#3F3D56" d="M94.324 79.096c0-48.819 39.729-88.536 88.563-88.536s88.563 39.717 88.563 88.536c0 48.82-39.729 88.537-88.563 88.537s-88.563-39.717-88.563-88.537Zm1.308 0c0 48.099 39.142 87.23 87.255 87.23 48.113 0 87.255-39.131 87.255-87.23 0-48.098-39.142-87.23-87.255-87.23-48.113 0-87.255 39.132-87.255 87.23Z"/>
    <path fill="#3F3D56" d="M167.216 79.479a15.662 15.662 0 0 1 9.674-14.474 15.675 15.675 0 0 1 21.367 11.417 15.668 15.668 0 0 1-15.37 18.723 15.67 15.67 0 0 1-11.081-4.589 15.663 15.663 0 0 1-4.59-11.077Zm15.671-14.902a14.924 14.924 0 0 0-14.906 14.902 14.898 14.898 0 0 0 9.202 13.767 14.91 14.91 0 0 0 20.324-10.86 14.901 14.901 0 0 0-14.62-17.81Z"/>
    <path fill="#CCC" d="M153.075 79.479a29.796 29.796 0 0 1 18.404-27.535 29.82 29.82 0 0 1 32.489 6.46 29.8 29.8 0 0 1-21.081 50.878 29.812 29.812 0 0 1-29.812-29.803Zm29.812-29.04a29.053 29.053 0 0 0-26.837 17.927 29.035 29.035 0 0 0 21.17 39.594 29.054 29.054 0 0 0 29.82-12.348 29.033 29.033 0 0 0 4.896-16.133 29.069 29.069 0 0 0-8.518-20.525 29.086 29.086 0 0 0-20.531-8.515Z"/>
    <path fill="#CCC" d="M124.791 79.479a58.065 58.065 0 0 1 9.791-32.267 58.09 58.09 0 0 1 26.072-21.392 58.114 58.114 0 0 1 63.313 12.59 58.069 58.069 0 0 1-8.803 89.36 58.11 58.11 0 0 1-32.277 9.788 58.168 58.168 0 0 1-41.061-17.03 58.132 58.132 0 0 1-17.035-41.05Zm58.096-57.315a57.344 57.344 0 0 0-31.852 9.659 57.319 57.319 0 0 0-21.116 25.722 57.312 57.312 0 0 0 12.428 62.462 57.347 57.347 0 0 0 62.48 12.424 57.327 57.327 0 0 0 25.73-21.11 57.299 57.299 0 0 0 9.662-31.842 57.371 57.371 0 0 0-16.811-40.51 57.406 57.406 0 0 0-40.521-16.805Z"/>
    <path fill="#6C63FF" d="M182.887 86.356a7.26 7.26 0 1 0 0-14.52 7.26 7.26 0 1 0 0 14.52Zm-18.728 21.015a7.261 7.261 0 1 0 0-14.52 7.261 7.261 0 0 0-7.263 7.26c0 4.01 3.252 7.26 7.263 7.26Zm73.065-3.056a7.262 7.262 0 0 0 7.263-7.26c0-4.01-3.252-7.26-7.263-7.26a7.261 7.261 0 0 0-7.262 7.26 7.262 7.262 0 0 0 7.262 7.26Z"/>
    <path fill="#2F2E41" d="M182.887 82.535a3.44 3.44 0 1 0 .001-6.879 3.44 3.44 0 0 0-.001 6.879Zm54.337 17.959a3.44 3.44 0 1 0 .001-6.879 3.44 3.44 0 0 0-.001 6.879Zm-73.065 3.438a3.44 3.44 0 1 0 .001-6.879 3.44 3.44 0 0 0-.001 6.879Z"/>
    <path fill="#6C63FF" d="M22.357 43.943a3.44 3.44 0 1 0 .001-6.879 3.44 3.44 0 0 0 0 6.88Z"/>
    <path fill="#2F2E41" d="M182.696 40.696H31.721v-.764h151.74v39.355h-.765V40.696Z"/>
    <path fill="#2F2E41" d="M12.42 40.504a9.932 9.932 0 0 1 6.135-9.178 9.94 9.94 0 0 1 13.55 7.24 9.933 9.933 0 0 1-9.747 11.873 9.942 9.942 0 0 1-9.182-6.133 9.932 9.932 0 0 1-.756-3.802Zm9.938-9.17a9.175 9.175 0 0 0-8.475 5.66 9.168 9.168 0 0 0 6.685 12.504 9.176 9.176 0 0 0 9.417-3.9 9.169 9.169 0 0 0 1.546-5.094 9.18 9.18 0 0 0-9.173-9.17Z"/>
    <path fill="#6C63FF" d="M45.29 142.907a3.44 3.44 0 1 0 0-6.88 3.44 3.44 0 0 0 0 6.88Z"/>
    <path fill="#2F2E41" d="M35.352 139.468a9.935 9.935 0 0 1 11.877-9.744 9.94 9.94 0 0 1 7.808 7.806 9.933 9.933 0 0 1-9.747 11.872 9.939 9.939 0 0 1-9.938-9.934Zm9.938-9.171a9.173 9.173 0 0 0-6.486 15.655 9.172 9.172 0 0 0 14.113-1.389 9.168 9.168 0 0 0 1.546-5.095 9.183 9.183 0 0 0-9.173-9.171Z"/>
    <path fill="#6C63FF" d="M343.862 59.991a3.44 3.44 0 1 0 .001-6.879 3.44 3.44 0 0 0-.001 6.88Z"/>
    <path fill="#2F2E41" d="M333.924 56.553a9.932 9.932 0 0 1 6.135-9.179 9.94 9.94 0 0 1 10.83 2.154 9.928 9.928 0 0 1-1.506 15.285 9.94 9.94 0 0 1-14.702-4.458 9.922 9.922 0 0 1-.757-3.802Zm9.938-9.17a9.183 9.183 0 0 0-9.173 9.17 9.168 9.168 0 0 0 5.663 8.472 9.175 9.175 0 0 0 12.507-6.683 9.17 9.17 0 0 0-8.997-10.96Z"/>
    <path fill="#2F2E41" d="m236.842 57.704 97.459-1.534.012.764-96.706 1.522v38.599h-.765v-39.35ZM54.846 139.086h108.93v-38.592h.765v39.356H54.846v-.764Z"/>
    <path fill="#CCC" d="M43.38 58.463H1.335v2.675h42.043v-2.675Zm0 7.642H1.335v2.674h42.043v-2.674Zm0 7.642H1.335v2.675h42.043v-2.675Zm22.932 83.68H24.27v2.674h42.043v-2.674Zm0 7.642H24.27v2.675h42.043v-2.675Zm0 7.642H24.27v2.675h42.043v-2.675Zm298.572-97.817H322.84v2.674h42.044v-2.674Zm0 7.641H322.84v2.675h42.044v-2.675Zm0 7.642H322.84v2.674h42.044v-2.674Z"/>
    <path fill="#6C63FF" d="m360.489 152.27-2.762-5.455s-10.287 2.577-11.222 8.537l13.984-3.082Z"/>
    <path fill="#3F3D56" d="M336.015 222.2c-.233-1.038-.901-32.709-.901-32.709s11.045-36.248 11.146-36.546l.039-.116 8.385-3.143c.118-.054 2.912-1.298 5.198-.261a4.472 4.472 0 0 1 2.383 2.928c.951.708 7.805 8.383 7.805 18.794l.259 24.568 5.746 26.634-.254.054c-.157.033-7.161 2.143-18.193 2.143-6.13 0-21.613-2.346-21.613-2.346Z"/>
    <path fill="#FFB8B8" d="M349.15 145.098c6.26 0 11.334-5.073 11.334-11.33 0-6.258-5.074-11.33-11.334-11.33-6.259 0-11.333 5.072-11.333 11.33 0 6.257 5.074 11.33 11.333 11.33Z"/>
    <path fill="#3F3D56" d="m337.648 193.637 11.869-13.754-4.547-18.97a8.298 8.298 0 0 1 5.113-9.69 8.305 8.305 0 0 1 10.271 3.82l.104.193 4.19 28.17-21.056 21.576-5.944-11.345Z"/>
    <path fill="#2F2E41" d="m358.804 143.605-9.407.337c-.573.021-2.13-6.166-2.333-7.449a3.498 3.498 0 0 0-1.294-2.105 3.5 3.5 0 0 0-2.361-.729c-.704.067-2.48-1.248-4.312-2.806-3.479-2.956-3.298-8.509.523-11.007a5.29 5.29 0 0 1 .308-.187c2.411-1.349 5.231-1.802 7.993-1.837 2.504-.031 5.079.284 7.285 1.469 3.956 2.124 6.06 6.767 6.245 11.251.185 4.485-1.253 8.87-2.885 13.052"/>
  </g>
  <defs>
    <clipPath id="a">
      <path fill="#fff" d="M0 0h411v343H0z" transform="translate(0 -28)"/>
    </clipPath>
  </defs>
</svg>
