<svg xmlns="http://www.w3.org/2000/svg" width="255" height="234" fill="none">
  <path fill="#E6E6E6" d="m91.627 186.873-2.45 5.507c1.992-.318 3.844 1.387 3.886 3.577.041 2.189-1.735 4.467-3.727 4.778.38 1.7 2.023 2.45 3.45 3.137 1.425.687 2.962 1.827 2.856 3.638-.085 1.454-1.285 2.739-2.56 3.255-1.273.516-2.61.437-3.901.35 1.956 2.051 2.146 5.905.429 8.67-1.718 2.765-5.148 4.126-7.716 3.062 1.814 2.262 1.42 6.406-.832 8.741-2.27 2.353-5.56 2.581-8.437 2.333a37.314 37.314 0 0 1-20.064-7.97c-2.2-1.751-4.253-3.811-5.508-6.497-1.254-2.687-1.623-6.088-.455-9.145-.315 3.829-4.14 6.854-7.58 7.024-3.441.169-6.445-1.774-8.998-3.989-3.395-2.945-6.538-7.074-6.072-12.169.23-2.522 1.33-4.947 2.408-7.297l2.09-4.555c.843-1.839 1.706-3.709 2.976-5.252 1.27-1.543 3.032-2.738 4.796-2.726-.403-1.847-.808-3.763-.47-5.725.338-1.962 1.632-3.993 3.392-4.453 2.24-.584 4.138 1.487 6.39 1.292 2.168-.188 3.96-2.368 6.064-3.232a4.844 4.844 0 0 1 5.238.908c1.335 1.306 1.89 3.511 1.412 5.598-.42 1.829-1.536 3.441-2.213 5.205-.678 1.763-.783 4.03.518 4.993 1.57 1.162 3.96-.419 5.187-2.332 1.227-1.913 1.931-4.23 3.483-5.838 1.83-1.899 4.696-2.344 6.581-1.022 1.885 1.321 2.606 4.282 1.656 6.798-.777 2.057-2.557 4.139-1.94 6.076.653 2.048 3.508 1.789 5.23.342 1.722-1.448 2.866-3.627 4.567-5.107 1.727-1.503 3.983-2.161 5.964-1.741a6.148 6.148 0 0 1 4.4 3.941"/>
  <path fill="#3F3D56" d="m51.955 171.398 5.084 2.367a3.897 3.897 0 0 0 2.468.334c.738-.175 1.237-.628 1.368-1.242l1.183-5.538c.223-1.045-.64-2.281-2.053-2.939l-2.808-1.307c-1.412-.658-2.912-.522-3.564.323l-3.46 4.478c-.384.496-.407 1.17-.064 1.848a3.908 3.908 0 0 0 1.846 1.676Z"/>
  <path fill="#6C63FF" d="M209.608 69.039a100.295 100.295 0 0 0-21.9-35.136c-8.197-8.528-20.953-8.174-20.953-8.174l-.073-.09a24.745 24.745 0 0 0-11.843-8.053 24.692 24.692 0 0 0-14.31-.136c-1.216.35-2.152.505-2.597.35-8.112-2.847-7.731-9.27-14.729-14.443-12.255-9.06-52.901 1.318-58.633 17.988-4.645 13.511-25.38 20.06-33.128 30.395a207.38 207.38 0 0 0-3.565 4.904c-.547.768-1.087 1.542-1.621 2.322A206.99 206.99 0 0 0 11.52 83.933a145.776 145.776 0 0 0-7.375 17.471c-8.08 23.672-5.317 41.309 16.96 36.952 2.637-.517 5.21-.98 7.721-1.388a215.055 215.055 0 0 1 10.525-1.466c4.554-.519 8.886-.859 12.997-1.02a155.3 155.3 0 0 1 4.07-.112c19.687-.274 34.29 3.44 45.415 9.205a66.74 66.74 0 0 1 12.731 8.565 72.178 72.178 0 0 1 8.879 9.119l.148.181c13.012 15.953 17.294 33.613 26.345 36.723 38.692 13.294 63.163-34.899 65.673-82.042a151.061 151.061 0 0 0 .194-10.265 135.283 135.283 0 0 0-.624-11.22 123.24 123.24 0 0 0-.367-3.27c-.984-7.944-2.706-15.502-5.204-22.327Z"/>
  <path fill="#3F3D56" d="M89.682 94.977c3.09 1.441 3.141 7.9 2.172 9.993l-1.756 3.788-11.192-5.212 1.756-3.788c.97-2.092 5.928-6.218 9.02-4.781Zm30.077 54.383a1.227 1.227 0 0 0 .516-2.34l-57.801-26.916a1.223 1.223 0 0 0-1.344.208 1.229 1.229 0 0 0 .313 2.016l57.801 26.917c.161.075.337.115.515.115Z"/>
  <path fill="#E6E6E6" d="m74.546 105.961 16.522 7.694-25.918 55.912-16.522-7.694 25.918-55.912Z"/>
  <path fill="#3F3D56" d="M136.57 35.578c3.09 1.442 3.141 7.9 2.172 9.993l-1.756 3.788-11.193-5.212 1.756-3.788c.971-2.092 5.929-6.218 9.021-4.781ZM67.334 177.825l5.085 2.367a3.89 3.89 0 0 0 2.468.334c.738-.175 1.237-.627 1.368-1.242l1.183-5.538c.223-1.044-.64-2.281-2.053-2.938l-2.808-1.308c-1.412-.658-2.912-.522-3.564.323l-3.46 4.478c-.384.496-.407 1.17-.064 1.848a3.907 3.907 0 0 0 1.845 1.676Zm15.632 7.773 5.085 2.368a3.896 3.896 0 0 0 2.467.333c.739-.175 1.237-.627 1.368-1.241l1.183-5.538c.224-1.045-.64-2.281-2.052-2.939l-2.808-1.307c-1.413-.658-2.912-.522-3.564.322l-3.46 4.478c-.384.497-.407 1.171-.065 1.849a3.906 3.906 0 0 0 1.846 1.675Z"/>
  <path fill="#E6E6E6" d="m117.024 56.073 16.523 7.694-52.39 113.019-16.523-7.694 52.39-113.019Z"/>
  <path fill="#3F3D56" d="m99.88 114.334 1.854-4.089-1.067-.493-1.848 4.076-26.764 59.478 1.066.497m5.849-62.867 1.854-4.089-1.067-.493-1.848 4.075-26.764 59.479 1.066.496"/>
  <path fill="#E6E6E6" d="m109.225 65.118 22.387 10.425c1.426-2.223 5.722-13.612 4.758-16.99l.724-3.223-15.458-7.199-2.069 2.551c-3.071.945-9.051 11.642-10.342 14.436Z"/>
  <path fill="#E6E6E6" d="m120.991 48.269 15.951 7.428c.589.274 1.216.174 1.401-.225a.574.574 0 0 0 .049-.182l.825-8.827c.035-.378-.287-.807-.78-1.036L127.858 40.5c-.493-.23-1.027-.2-1.293.07l-6.198 6.325c-.317.324-.145.878.384 1.237.076.052.156.097.24.136Z"/>
  <path fill="#3F3D56" d="M108.479 117.429c.173 0 .345-.02.512-.061a1.585 1.585 0 0 0 1.102-.857l9.752-21.038c.404-.871-.138-1.985-1.208-2.483l-14.28-6.65c-1.07-.499-2.268-.195-2.672.676l-9.753 21.039a1.587 1.587 0 0 0 .057 1.396c.25.482.656.865 1.151 1.087l14.28 6.649c.332.157.693.239 1.059.242Z"/>
  <path fill="#E6E6E6" d="m106.526 120.613 16.523 7.695-25.918 55.911-16.522-7.694 25.917-55.912Z"/>
  <path fill="#3F3D56" d="m126.882 49.191 4.845 2.256c.935.436 2.197-.29 2.812-1.617.615-1.327.354-2.76-.581-3.196l-4.845-2.257c-.935-.435-2.196.29-2.811 1.617-.615 1.328-.355 2.762.58 3.197Zm-5.542 60.288c3.09 1.441 3.141 7.9 2.172 9.993l-1.756 3.788-11.192-5.213 1.756-3.787c.971-2.092 5.928-6.218 9.02-4.781Z"/>
  <path fill="#E6E6E6" d="M172.669 96.587c1.092.728 2.209-1.006 1.096-1.703-1.091-.728-2.208 1.006-1.096 1.703ZM59.075 71.663c1.09.729 2.208-1.006 1.096-1.702-1.092-.729-2.209 1.006-1.096 1.702Zm77.424 19.826c1.092.729 2.209-1.006 1.096-1.702-1.091-.73-2.208 1.005-1.096 1.702Zm36.17 67.973c1.092.729 2.209-1.006 1.096-1.702-1.091-.729-2.208 1.006-1.096 1.702ZM117.002 17.568c1.092.729 2.209-1.006 1.096-1.702-1.091-.729-2.208 1.006-1.096 1.702Zm53.689 33.42c1.091.729 2.208-1.006 1.096-1.702-1.091-.73-2.208 1.005-1.096 1.702ZM93.47 41.407l.694-.153-.152-.696.463-.102.152.697.694-.153.102.464-.694.153.152.696-.463.101-.153-.696-.694.153-.101-.464Zm113.057 57.998.694-.153-.152-.696.463-.101.152.695.695-.152.101.464-.694.153.152.696-.463.101-.152-.696-.695.153-.101-.464Z"/>
  <path fill="#3F3D56" d="M64.14 128.99a2.407 2.407 0 0 0 3.19-1.169l2.859-6.165a2.411 2.411 0 0 0-1.168-3.195 2.399 2.399 0 0 0-3.189 1.167l-2.857 6.164a2.416 2.416 0 0 0 1.166 3.198Zm48.604 22.657a2.399 2.399 0 0 0 3.191-1.168l2.857-6.165a2.41 2.41 0 0 0-1.167-3.195 2.402 2.402 0 0 0-3.189 1.166l-2.858 6.165a2.415 2.415 0 0 0 1.166 3.197Z"/>
  <path fill="#E6E6E6" d="m68.543 115.521 19.16 8.923c1.22-1.902 4.898-11.65 4.072-14.542l-.405-3.235-11.44-5.626-2.536 2.126c-3.572-1.211-8.822 7.66-8.85 12.354Z"/>
  <path fill="#3F3D56" d="m77.439 114.902 4.845 2.257c.935.435 2.358-.638 3.171-2.393.813-1.754.714-3.536-.22-3.972l-4.846-2.256c-.935-.436-2.358.638-3.17 2.392-.814 1.755-.715 3.537.22 3.972Zm41.092 11.611 1.854-4.089-1.068-.493-1.848 4.076-26.764 59.478 1.066.496"/>
  <path fill="#E6E6E6" d="m100.201 130.023 19.16 8.923c2.827-1.463 7.147-11.035 4.072-14.542l-.405-3.235-11.441-5.626-2.535 2.126c-2.628.808-7.746 9.963-8.851 12.354Z"/>
  <path fill="#3F3D56" d="m109.491 128.554 4.845 2.256c.935.435 2.269-.447 2.974-1.967.704-1.52.517-3.111-.418-3.547l-4.846-2.256c-.935-.436-2.269.447-2.973 1.967-.705 1.52-.517 3.111.418 3.547Z"/>
  <path fill="#FF6584" d="M206.597 87.189c-16.074 0-29.105-13.061-29.105-29.172 0-16.112 13.031-29.172 29.105-29.172 16.074 0 29.105 13.06 29.105 29.172 0 16.11-13.031 29.172-29.105 29.172Z"/>
  <path fill="#F0F0F0" d="M87.262 88.4 69.575 36.625l19.422 51.156a.977.977 0 0 1-.89 1.572.97.97 0 0 1-.845-.953Z" opacity=".3"/>
  <path fill="#3F3D56" d="M42.177 57.539c3.462 1.153 7.3 2.286 11.515 3.399 21.8 5.752 51.019 10.24 82.276 12.635 31.257 2.396 60.818 2.413 83.236.05 10.921-1.152 19.558-2.808 25.673-4.923 6.473-2.24 9.875-4.938 10.11-8.02.458-6.004-11.363-11.288-21.36-14.664l-.271.805c13.729 4.636 21.111 9.535 20.786 13.795-.414 5.425-13.181 9.858-35.027 12.161-22.369 2.359-51.875 2.34-83.083-.051-31.207-2.392-60.373-6.87-82.124-12.61-21.242-5.605-33.189-11.932-32.775-17.358.344-4.504 9.203-8.358 24.945-10.85l-.132-.84c-11.439 1.812-25.175 5.299-25.658 11.626-.235 3.082 2.718 6.267 8.776 9.466 3.454 1.824 7.842 3.623 13.113 5.379Z"/>
  <path fill="#FF6584" d="M33.624 109.278a3.028 3.028 0 0 1-3.024-3.031 3.028 3.028 0 0 1 3.024-3.031 3.028 3.028 0 0 1 3.024 3.031 3.028 3.028 0 0 1-3.024 3.031Z"/>
  <path fill="#F2F2F2" d="M14.41 191.412a3.028 3.028 0 0 1-3.025-3.031 3.028 3.028 0 0 1 3.024-3.031 3.028 3.028 0 0 1 3.025 3.031 3.028 3.028 0 0 1-3.025 3.031Zm103.139 18.456c-3.256 0-5.896-2.646-5.896-5.909 0-3.264 2.64-5.91 5.896-5.91s5.896 2.646 5.896 5.91c0 3.263-2.64 5.909-5.896 5.909Z"/>
  <path fill="#3F3D56" d="M162.478 131.653a3.028 3.028 0 0 1-3.024-3.032 3.028 3.028 0 0 1 3.024-3.031 3.028 3.028 0 0 1 3.024 3.031 3.028 3.028 0 0 1-3.024 3.032Z"/>
  <path fill="#E6E6E6" d="m60.808 135.598-13.048 3.385-8.003 15.755 13.53.532 7.52-19.672Z"/>
  <path fill="#CCC" d="m90.925 112.885-7.181 7.202-18.24 39.525 3.358 2.907 22.063-49.634Zm15.615 6.528-.563 10.167-17.216 39.983-4.401-.568 22.18-49.582Z"/>
  <path fill="#E6E6E6" d="m107.01 160.484 7.027 11.528-5.18 16.899-10.092-9.048 8.245-19.379Z"/>
  <path fill="#3F3D56" d="M44.933 167.568c3.648 0 7.648-.138 11.997-.415 22.497-1.432 51.637-6.41 82.053-14.017 30.415-7.607 58.473-16.935 79.003-26.265 10.001-4.544 17.677-8.846 22.814-12.786 5.439-4.171 7.818-7.807 7.071-10.806-1.455-5.843-14.335-7.12-24.885-7.164l-.003.85c14.487.059 23.033 2.375 24.065 6.52 1.315 5.279-9.406 13.521-29.412 22.613-20.485 9.309-48.491 18.618-78.859 26.214-30.367 7.595-59.454 12.564-81.9 13.993-21.923 1.396-35.25-.832-36.564-6.111-1.092-4.384 6.103-10.841 20.257-18.183l-.39-.754c-10.284 5.335-22.223 12.986-20.69 19.143.747 2.999 4.551 5.088 11.307 6.209 3.851.638 8.582.959 14.136.959Z"/>
</svg>
