<svg xmlns="http://www.w3.org/2000/svg" width="380" height="318" fill="none">
    <g clip-path="url(#undraw-robot-a)">
        <path fill="#6C63FF" d="M384.368 159.102v63.022h111.289v-63.022H384.368Zm0 64.968v42.681c12.955-4.134 27.768-2.461 41.199.933 10.399 2.629 20.532 6.221 30.914 8.794a112.75 112.75 0 0 0 14.094 2.658l1.167.13 1.7.152 1.7.125a.863.863 0 0 1 .176 0c.249 0 .504 0 .759.034h.261c.306 0 .612.034.918.034.437 0 .879 0 1.321.039h3.638c.334 0 .663 0 .992-.034.532 0 1.065-.045 1.603-.079l.992-.068c.408 0 .822-.056 1.224-.096a59.57 59.57 0 0 0 2.579-.26c.34-.04.685-.079 1.025-.13l.505-.062c.855-.113 1.7-.243 2.556-.39.629-.097 1.258-.21 1.892-.328V224.07H384.368Zm82.773-135.162v1.945h-82.773v66.298h111.289V90.876h-5.582v-1.945h5.582V46.103c-21.648-17.407-46.951-31.036-75.134-37.325a160.455 160.455 0 0 0-36.155-3.767v83.92l82.773-.023Zm-254.451-.373.391.373h158.836V5.594c-28.278 2.347-55.854 11.825-78.086 27.53-10.682 7.538-20.277 16.48-32.262 22.26a50.609 50.609 0 0 1-20.175 5.202L212.69 88.535Zm-1.093-34.18v18.86l15.346-14.948c-5.707-1.968-10.206-3.308-15.369-3.89l.023-.023Zm-.51 237.273h.51v41.346a314.542 314.542 0 0 0 17.307-1.776 310.664 310.664 0 0 0 74.935-19.375c2.584-1.04 5.15-2.109 7.696-3.206 1.696-.754 3.383-1.508 5.061-2.262a309.333 309.333 0 0 0 7.491-3.558 262.934 262.934 0 0 0 31.674-18.345c.629-.43 1.263-.86 1.887-1.295 1.25-.868 2.495-1.742 3.734-2.624.618-.447 1.236-.888 1.848-1.341l1.275-.939c1.269-.944 2.533-1.888 3.814-2.827 1.184-.849 2.38-1.697 3.593-2.489v-48.861H244.301c.091-.283.176-.566.272-.866-.102.289-.192.566-.277.866h-32.722v67.541l-.487.011Zm.51-200.763v66.286h160.32V90.876l-160.32-.011Zm0 68.225v63.034h160.32v-63.022l-160.32-.012ZM179.544 56.294l19.585 19.075V54.281a242.979 242.979 0 0 0-19.585 2.013ZM43.155 159.102v63.022H199.13v-63.022H43.155Zm37.697 155.656a290.147 290.147 0 0 0 73.519 17.407h.108c4.752.502 9.522.89 14.309 1.165h.176c10.025.566 20.089.696 30.137.323V224.07H43.155l.567 72.569 37.13 18.119ZM-.033 222.124h30.76v-63.022H18.56a174.57 174.57 0 0 0-3.65 6.701 145.378 145.378 0 0 0-1.818 3.648C5.084 186.049-.005 204.271-.033 222.124Zm0 1.946c.25 12.804 3.14 25.375 9.48 36.986 5.271 9.614 12.593 18.097 21.258 25.449V224.07H-.033Zm19.732-66.919h11.028V140.75A175.643 175.643 0 0 0 19.7 157.151Zm69.076-68.22h106.676l.386-.374-.567-.565-29.996-29.187a242.679 242.679 0 0 0-26.346 7.03c-.816.265-1.632.565-2.442.82A239.376 239.376 0 0 0 88.775 88.93Zm-45.62 36.968v31.252h155.963v-64.47l-2.188-1.777H85.658A214.157 214.157 0 0 0 43.155 125.9Z" opacity=".1" />
        <path fill="#6C63FF" d="M243.887 93.663h-32.308v63.487h32.308V93.663ZM211.579 159.1v63.022h160.343v-27.179h-85.408v16.033h-42.633V159.1h-32.302ZM211.063 291.649h.511v41.324a316.504 316.504 0 0 0 17.307-1.776 310.527 310.527 0 0 0 74.992-19.381 285.779 285.779 0 0 0 20.248-9.014 264.704 264.704 0 0 0 31.645-18.352 247.916 247.916 0 0 0 7.463-5.254c1.7-1.244 3.4-2.522 5.1-3.755a98.6 98.6 0 0 1 3.599-2.494v-48.873H244.335c.09-.294.175-.565.266-.871-.096.289-.187.566-.272.871h-32.755v67.547l-.511.028ZM127.322 88.93h21.048V83.12h-9.442V65.833c-.816.272-1.637.566-2.448.82v16.468h-9.158v5.808ZM76.59 157.148h103.362-.034H199.129V93.661H193.7V140.6h-24.821v-27.784H148.37V90.879h-21.048v21.937h-20.498v27.773H76.591v16.559ZM76.59 159.1v63.022H199.13V159.1H76.591Zm4.28 155.656a290.147 290.147 0 0 0 73.518 17.407h.108c4.752.502 9.522.89 14.309 1.165h.176c10.025.566 20.089.696 30.137.323V224.068H76.591v22.344H43.155l.176 49.891M28.568 224.073H-.01c.25 12.798 3.145 25.364 9.487 36.975 5.265 9.648 12.592 18.097 21.251 25.449v-40.085h-2.159v-22.339ZM-.027 222.124h28.596V169.45H13.12C5.09 186.049-.005 204.276-.027 222.124Z" opacity=".1" />
        <path fill="#6C63FF" d="M228.886 111.313h-17.307v19.907h17.307v-19.907ZM228.886 152.569h-17.307v4.581h17.307v-4.581ZM228.886 159.1h-17.307v13.374h17.307V159.1ZM228.886 193.829h-17.307v19.907h17.307v-19.907ZM228.886 235.093h-17.307v19.906h17.307v-19.906ZM211.574 291.621l-.511.028h.511v4.62h17.307v-19.923h-17.307v15.275ZM211.574 317.597v15.376a315.316 315.316 0 0 0 17.307-1.775v-13.573l-17.307-.028ZM371.923 220.665h-74.17v1.459h74.17v-1.459ZM371.923 224.073h-74.17v5.605h74.17v-5.605ZM371.923 248.046h-74.17v9.014h74.17v-9.014ZM297.747 275.402v9.049h58.019a246.694 246.694 0 0 0 7.464-5.254c1.7-1.244 3.4-2.517 5.1-3.755l-70.583-.04ZM297.747 302.801v9.014h6.126a283.966 283.966 0 0 0 20.248-9.014h-26.374ZM154.394 178.164h14.598v-12.956h-14.598v12.956ZM98.653 178.164h14.598v-12.956H98.653v12.956ZM154.394 210.123h14.598v-12.956h-14.598v12.956ZM98.653 210.123h14.598v-12.956H98.653v12.956ZM154.394 242.081h14.598v-12.956h-14.598v12.956ZM98.653 242.081h14.598v-12.956H98.653v12.956ZM154.394 274.044h14.598v-12.956h-14.598v12.956ZM98.653 274.044h14.598v-12.956H98.653v12.956ZM154.394 306.001h14.598v-12.956h-14.598v12.956ZM98.653 306.001h14.598v-12.956H98.653v12.956ZM211.063 291.65h.511-.511Zm33.232-67.581c.091-.283.176-.566.272-.865-.096.288-.187.582-.272.865ZM467.14 88.929v1.946h22.934V88.93H467.14ZM211.063 291.65h.511-.511Zm33.232-67.581c.091-.283.176-.566.272-.865-.096.288-.187.582-.272.865Zm-33.232 67.581h.511-.511Zm33.232-67.581c.091-.283.176-.566.272-.865-.096.288-.187.582-.272.865Z" opacity=".1" />
        <path fill="#535461" d="M16.741 267.411h-2.873v64.482h2.873v-64.482Z" />
        <path fill="#6C63FF" d="M-8.369 291.581c16.712 12.062 23.671 30.94 23.671 30.94s-20.14-.69-36.835-12.759c-16.695-12.068-23.717-30.94-23.717-30.94s20.163.69 36.881 12.759Z" />
        <path stroke="#535461" stroke-miterlimit="10" stroke-width="3.754" d="M-45.25 278.822s20.906 11.582 27.61 21.168c6.704 9.586 32.92 22.531 32.92 22.531" />
        <path fill="#6C63FF" d="M2.415 267.269c9.101 6.566 12.887 16.841 12.887 16.841s-10.96-.378-20.061-6.944c-9.102-6.566-12.882-16.842-12.882-16.842s10.96.373 20.056 6.945Z" />
        <path stroke="#535461" stroke-miterlimit="10" stroke-width="3.754" d="M-17.64 260.324s11.373 6.306 15.028 11.52c3.656 5.214 17.914 12.266 17.914 12.266" />
        <path fill="#6C63FF" d="M28.523 283.584c-10.45 11.464-12.66 26.439-12.66 26.439s14.735-3.608 25.185-15.072c10.45-11.463 12.66-26.432 12.66-26.432s-14.734 3.602-25.185 15.065Z" />
        <path stroke="#535461" stroke-miterlimit="10" stroke-width="3.754" d="M53.708 268.519s-13.601 11.746-17.075 19.844c-3.474 8.098-20.77 21.66-20.77 21.66" />
        <path stroke="#6C63FF" stroke-miterlimit="10" stroke-width="1.877" d="M184.752 43.365c6.194 0 11.215-5.01 11.215-11.192 0-6.18-5.021-11.192-11.215-11.192s-11.215 5.011-11.215 11.192 5.021 11.192 11.215 11.192Z" opacity=".2" />
        <path stroke="#6C63FF" stroke-miterlimit="10" stroke-width="1.877" d="M184.751 52.4c11.196 0 20.271-9.056 20.271-20.229 0-11.172-9.075-20.229-20.271-20.229-11.195 0-20.271 9.057-20.271 20.23 0 11.172 9.076 20.229 20.271 20.229Z" opacity=".2" />
        <path stroke="#6C63FF" stroke-miterlimit="10" stroke-width="1.877" d="M184.751 64.062c17.649 0 31.957-14.278 31.957-31.89 0-17.613-14.308-31.89-31.957-31.89s-31.956 14.277-31.956 31.89c0 17.612 14.307 31.89 31.956 31.89Z" opacity=".2" />
        <path fill="url(#undraw-robot-b)" d="M262.231 410.135c-.3-2.228-1.836-5.09-1.836-5.09l-8.2-11.961h.074s-1.298-6.011 0-8.952c1.297-2.941-4.613-10.214-4.613-10.214s-.72-1.821 1.133-4.06c1.853-2.24-1.133-8.811-1.133-8.811s-1.445-13.714-1.587-15.835c-.142-2.121-1.298-13.708-1.298-13.708l-2.743-24.629-4.873-65.263-.091-1.221c.606-.288.924-.469.924-.469l-1.02-36.064.844-.741c7.367-6.487 24.317-21.49 24.153-21.835-.221-.419-2.057-25.082-2.267-31.274a36.536 36.536 0 0 0-2.896-12.798c-.425-.826-1.649-6.221-2.159-8.528l-.221-1.024s-4.976-9.235-4.534-13.431c.442-4.197 1.298-7.352-9.305-8.817 0 0-8.942-1.295-14.207-4.83a41.242 41.242 0 0 0-10.167-4.965s-1.949-3.393-3.848-2.737v-7.205a7.86 7.86 0 0 0 3.602-2.847 7.833 7.833 0 0 0 1.391-4.37V52.506a7.942 7.942 0 0 0-2.412-5.588 7.975 7.975 0 0 0-5.664-2.25h-22.549a7.876 7.876 0 0 0-.974.084V32.875a1.26 1.26 0 0 0-.397-.916 1.351 1.351 0 0 0-.946-.385 1.328 1.328 0 0 0-1.344 1.301v12.719a7.795 7.795 0 0 0-4.199 6.854V78.4a7.836 7.836 0 0 0 1.389 4.368 7.86 7.86 0 0 0 3.598 2.849v6.848c-.912-.107-2.267.52-3.808 3.653 0 0-7.719 4.338-10.388 4.83-2.669.492-12.116 3.704-12.116 3.704a8.508 8.508 0 0 1-4.902 1.538c-2.958 0-5.412 6.3-5.049 9.728.362 3.427-.221 5.943-2.958 6.085-2.738.141-1.242 5.615-1.23 5.655-.034.153-.125.566-.255 1.165-.533 2.392-1.7 7.522-2.108 8.325a36.387 36.387 0 0 0-2.925 12.798c-.215 6.22-2.057 30.855-2.266 31.273-.136.278 11.481 10.632 19.659 17.866l1.178 1.04-3.757 34.232s0 3.834 3.865 6.707c0 .39 0 .803-.045 1.221-.165 3.959-.493 8.851-1.134 10.123-1.133 2.263-.867 14.269-.867 14.269s-1.133 24.493-2.595 27.145c-1.462 2.653-1.734 8.257-1.298 9.377.436 1.12-1.445 30.505-1.445 30.505l-1.445 13.148s.436 12.595-.862 12.877c-1.297.283-2.023 8.953-2.023 8.953s-4.613 6.158-2.595 8.398c2.017 2.239-.301 3.218-.51 3.778-.21.559-4.398 2.658-1.366 10.49.028.079.068.147.102.221-2.834 3.828-11.827 16.225-11.283 18.097a5.04 5.04 0 0 0 2.403 2.827c2.114 1.233 5.746 1.804 11.515 0 9.594-3.008 8.875-5.18 8.875-5.18s.073-3.495 4.04-3.778c3.967-.282 6.925-3.845 6.925-3.845l-.464-1.697-.641-2.336c.08-.695.567-1.838 2.76-2.488 3.321-.978 2.454-7.131 2.454-7.131s-.289-6.442 1.133-7.279c1.423-.837.862-11.474.862-11.474s1.592-7.697 3.899-12.877c2.306-5.181 5.049-35.957 5.049-35.957s1.87-15.111 3.604-19.448c1.734-4.338 3.321-16.514 3.321-16.514s10.677-20.15 10.819-24.629c0 0 1.382-4.196 2.714.424 1.332 4.621 5.219 15.671 5.219 15.671l3.752 13.573 4.471 20.286 2.885 17.073s-.425 6.504.725 8.766c1.151 2.262 2.743 7.414 1.876 8.398s1.734 5.593 2.454 6.571c.72.979 0 21.694 0 21.694s3.315 17.628 8.075 20.704c.334.21.687.388 1.054.532-.068 1.911-.136 4.467-.045 5.802-.009.299.041.597.147.877.431.565 5.339 4.332 6.348 4.332 1.008 0 4.613 2.454 4.76 3.642.147 1.187 10.546 6.22 12.014 6.367 1.468.148 8.614 1.397 9.634-.565a3.158 3.158 0 0 0 .164-1.872Zm-25.547-252.142.743.622s.753 5.774 1.297 7.499c.544 1.725-.107 5.09-.107 5.09s.107 2.415.753 3.67c.646 1.256-1.269 3.993-1.269 3.993h-1.757l-.566-21.615.906.741Zm-78.114 18.663a2.364 2.364 0 0 1-.114-1.782 5.23 5.23 0 0 0 .369-.984 14.673 14.673 0 0 0 .391-2.714c-.057-.328-.612-3.394-.102-5.09.51-1.697 1.298-7.499 1.298-7.499l.493-.413 1.133-.95s.034-.362.079-.956c.244 5.09.437 10.655.125 10.96-.567.566-2.669 6.017-2.165 6.221.165.068-.062 2.262-.442 5.192a10.435 10.435 0 0 1-1.065-1.98v-.005Z" />
        <path fill="#6F758D" d="M186.049 33.469V50.62a1.302 1.302 0 0 1-2.225.92 1.301 1.301 0 0 1-.382-.92V33.47a1.292 1.292 0 0 1 .805-1.202c.158-.065.328-.099.499-.099a1.315 1.315 0 0 1 1.303 1.3ZM211.857 79.32v26.653a8.047 8.047 0 0 1-2.365 5.676 8.086 8.086 0 0 1-5.687 2.36h-11.538a8.083 8.083 0 0 1-5.692-2.358 8.052 8.052 0 0 1-2.367-5.678V79.319a8.053 8.053 0 0 1 2.369-5.676 8.09 8.09 0 0 1 5.69-2.36h11.538a8.083 8.083 0 0 1 5.687 2.36 8.046 8.046 0 0 1 2.365 5.676Z" />
        <path fill="#3F3D56" d="m166.487 179.199-2.205 27.145s-3.309-2.992-7.594-6.894c-7.933-7.222-19.211-17.565-19.08-17.837.209-.418 1.994-25.047 2.204-31.228a37.413 37.413 0 0 1 2.834-12.787c.396-.797 1.53-5.915 2.045-8.308.165-.746.261-1.227.261-1.227l3.678-1.47s15.437 17.186 15.437 17.503c0 .317-1.048 13.516-1.048 13.516l-1.1.956-.476.407s-.737 5.769-1.264 7.493c-.493 1.64.046 4.734.102 5.056v.029c-.046.903-.175 1.8-.385 2.68-.085.34-.203.672-.351.99a2.43 2.43 0 0 0 .107 1.776c.292.776.672 1.516 1.134 2.205l5.701-.005ZM260.044 181.607c.165.328-16.304 15.326-23.439 21.802l-3.235 2.929-2.205-27.145h5.667s1.893-2.726 1.264-3.959-.737-3.67-.737-3.67.629-3.354.108-5.09c-.522-1.736-1.264-7.493-1.264-7.493l-.72-.645-.855-.747s-1.06-13.182-1.06-13.499c0-.317 15.437-17.503 15.437-17.503l3.672 1.47s.085.396.215 1.024c.499 2.262 1.701 7.691 2.097 8.511a37.338 37.338 0 0 1 2.834 12.787c.226 6.181 2.012 30.81 2.221 31.228ZM250.569 384.177c-1.258 2.935 0 8.941 0 8.941s-18.764.984-23.383-2.092c-4.618-3.077-7.843-20.682-7.843-20.682s.697-20.676 0-21.66c-.697-.984-3.219-5.587-2.38-6.56.839-.973-.703-6.153-1.819-8.387-1.116-2.233-.703-8.664-.703-8.664l-2.799-17.045-4.341-20.263-3.638-13.572s-3.78-11.04-5.067-15.654c-1.286-4.615-2.635-.419-2.635-.419-.136 4.474-10.501 24.595-10.501 24.595s-1.541 12.153-3.224 16.485c-1.684 4.332-3.497 19.426-3.497 19.426s-2.658 30.737-4.902 35.906c-2.244 5.169-3.74 12.877-3.74 12.877s.566 10.621-.839 11.458c-1.405.837-1.133 7.267-1.133 7.267s.838 6.147-2.386 7.131c-3.225.984-2.658 3.071-2.658 3.071s-17.919 2.918-20.866-4.892c-2.947-7.81 1.133-9.919 1.326-10.479.193-.56 2.459-1.533.493-3.772-1.966-2.24 2.522-8.387 2.522-8.387s.703-8.658 1.961-8.941c1.258-.283.838-12.855.838-12.855l1.4-13.131s1.825-29.346 1.406-30.465c-.42-1.12-.142-6.708 1.258-9.36 1.399-2.652 2.51-27.106 2.51-27.106s-.283-12.017.839-14.251c.635-1.267.952-6.136 1.133-10.112.114-3.025.148-5.536.148-5.536l15.675-5.871 20.174-6.424 16.945 8.098 24.782 4.751.311 4.27 4.71 65.2 2.663 24.595s1.134 11.593 1.264 13.685c.13 2.093 1.536 15.796 1.536 15.796s2.941 6.565 1.133 8.799c-1.808 2.234-1.133 4.055-1.133 4.055s5.74 7.239 4.46 10.174Z" />
        <path fill="#000" d="m221.191 102.768-6.438 114.508-35.011-7.335-6.93-45.904 6.862-61.62 5.169.662 9.118 1.159 9.027.56 9.782-1.092 8.421-.938Z" opacity=".1" />
        <path fill="#6C63FF" d="m221.191 103.609-6.438 114.503-35.011-7.335-6.93-45.904 6.862-61.614 5.169.656 9.118 1.159 9.027.56 9.782-1.091 8.421-.934Z" />
        <path fill="#3F3D56" d="m192.414 106.682 12.604.418-3.542 4.949s.249 9.998 1.932 12.865c1.683 2.868 1.19 47.16 1.19 47.16l-3.332 6.357-5.741-7.126.068-58.476-3.179-6.147Z" />
        <path fill="#000" d="m192.414 106.682 12.604.418-3.542 4.949s.249 9.998 1.932 12.865c1.683 2.868 1.19 47.16 1.19 47.16l-3.332 6.357-5.741-7.126.068-58.476-3.179-6.147Z" opacity=".1" />
        <path fill="#000" d="m212.158 93.686-11.76 12.996 6.722 6.985 11.13-10.825-6.092-9.156Z" opacity=".1" />
        <path fill="#6C63FF" d="m211.381 93.702-10.988 12.136 6.721 6.99 11.152-10.83-5.446-8.189a.893.893 0 0 0-1.103-.35.898.898 0 0 0-.336.243Z" />
        <path fill="#000" d="m195.429 106.054-11.901-11.876-1.122 6.215 5.463 13.624 7.56-7.963Z" opacity=".1" />
        <path fill="#6C63FF" d="m195.848 105.216-11.901-11.882-1.122 6.22 5.463 13.624 7.56-7.962Z" />
        <path fill="#000" d="M235.919 241.873a58.104 58.104 0 0 1-18.095 5.253c-11.549 1.471-19.109-13.199-19.109-13.199l-4.409 5.729c-1.4 6.079-22.759 7.612-31.435 5.304a13.75 13.75 0 0 1-4.975-2.352c.113-3.026.147-5.537.147-5.537l15.681-5.893 20.174-6.424 16.945 8.098 24.782 4.751.294 4.27ZM221.185 103.604l-6.437 114.503-35.006-7.352-6.93-45.898 6.862-61.643 5.169.656a62.411 62.411 0 0 1-.76 6.679c-.838 3.913 4.341 31.72 4.341 31.72s9.844 31.178 14.281 26.688c4.437-4.49 10.711-28.226 10.711-28.226 4.273-8.805.074-33.462-.244-33.988a9.933 9.933 0 0 1-.402-2.262l8.415-.877ZM236.311 192.19l.294 11.22-3.235 2.93-2.205-27.146h4.828l.318 12.996ZM160.288 171.52v.028c-.047.903-.176 1.8-.386 2.68 0-.248 0-.39-.045-.407-.204-.09.04-1.114.431-2.301ZM166.487 179.198l-2.205 27.145s-3.309-2.991-7.594-6.893l.511-4.807s1.807-11.82 2.465-17.645c.291.776.672 1.516 1.133 2.206l5.69-.006Z" opacity=".1" />
        <path fill="#3F3D56" d="M185.477 93.752s-2.097-3.071-4.964 2.867c0 0-7.492 4.332-10.082 4.818-2.59.487-11.759 3.705-11.759 3.705a8.118 8.118 0 0 1-4.766 1.538c-2.867 0-5.248 6.283-4.896 9.71.351 3.427-.21 5.938-2.873 6.079-2.664.142-1.19 5.656-1.19 5.656l17.715 20.263s1.133 18.662.566 19.228c-.566.565-2.595 6.006-2.102 6.221.493.215-2.664 20.823-2.664 20.823l-4.273 40.022s0 6.702 8.682 9.009c8.682 2.307 30.036.769 31.435-5.31l4.409-5.729s7.56 14.704 19.11 13.205c11.549-1.499 18.905-5.655 18.905-5.655l-1.264-47.997-.839-34.582 18.061-29.549s-4.828-9.224-4.409-13.415c.42-4.19 1.264-7.351-9.027-8.805 0 0-8.682-1.289-13.794-4.818a39.348 39.348 0 0 0-9.872-4.96s-2.323-4.185-4.329-2.375c0 0 1.462 6.424 1.286 7.578-.176 1.154.312 6.255.629 6.786.317.532 4.534 25.183.244 33.989 0 0-6.274 23.752-10.711 28.22s-14.281-26.688-14.281-26.688-5.18-27.801-4.341-31.715c.839-3.913 1.394-18.12 1.394-18.12Z" />
        <path fill="#3F3D56" d="M200.467 185.353a3.08 3.08 0 0 0 3.083-3.076 3.08 3.08 0 0 0-3.083-3.077 3.08 3.08 0 0 0-3.083 3.077 3.08 3.08 0 0 0 3.083 3.076ZM200.467 199.847a3.08 3.08 0 0 0 3.083-3.076 3.08 3.08 0 0 0-3.083-3.077 3.08 3.08 0 0 0-3.083 3.077 3.08 3.08 0 0 0 3.083 3.076Z" />
        <path fill="#000" d="M200.467 185.353a3.08 3.08 0 0 0 3.083-3.076 3.08 3.08 0 0 0-3.083-3.077 3.08 3.08 0 0 0-3.083 3.077 3.08 3.08 0 0 0 3.083 3.076ZM200.467 199.847a3.08 3.08 0 0 0 3.083-3.076 3.08 3.08 0 0 0-3.083-3.077 3.08 3.08 0 0 0-3.083 3.077 3.08 3.08 0 0 0 3.083 3.076ZM211.857 79.32v8.07a8.002 8.002 0 0 1-3.207.672h-21.223a7.95 7.95 0 0 1-3.219-.678v-8.065a8.053 8.053 0 0 1 2.369-5.676 8.09 8.09 0 0 1 5.69-2.36h11.538a8.091 8.091 0 0 1 5.686 2.362 8.056 8.056 0 0 1 2.366 5.674ZM186.049 44.665v5.96a1.302 1.302 0 0 1-2.225.92 1.302 1.302 0 0 1-.382-.92V45.61a7.707 7.707 0 0 1 2.607-.944Z" opacity=".1" />
        <path fill="#DCDFED" d="M209.902 45.208h-23.733c-3.756 0-6.801 3.038-6.801 6.786v27.943c0 3.748 3.045 6.787 6.801 6.787h23.733c3.756 0 6.801-3.039 6.801-6.787V51.994c0-3.748-3.045-6.786-6.801-6.786Z" />
        <path fill="#000" d="M208.633 72.94v16.927h-21.206v-16.96a8.011 8.011 0 0 1 4.839-1.624h11.539a8.045 8.045 0 0 1 4.828 1.657Z" opacity=".1" />
        <path fill="#000" d="M208.882 45.208h-21.88v43.291h21.88V45.208Z" opacity=".1" />
        <path fill="#6F758D" d="M208.65 45.208h-21.223v43.291h21.223V45.208Z" />
        <path fill="#DCDFED" d="M195.847 60.143h-6.863v1.266h6.863v-1.266ZM207.261 60.143h-6.863v1.266h6.863v-1.266ZM203.828 74.135h-11.584v.758h11.584v-.758Z" />
    </g>
    <defs>
        <linearGradient id="undraw-robot-b" x1="195.836" x2="195.836" y1="413.698" y2="31.631" gradientUnits="userSpaceOnUse">
            <stop stop-color="gray" stop-opacity=".25" />
            <stop offset=".54" stop-color="gray" stop-opacity=".12" />
            <stop offset="1" stop-color="gray" stop-opacity=".1" />
        </linearGradient>
        <clipPath id="undraw-robot-a">
            <path fill="#fff" d="M.5 0h379v318H.5z" />
        </clipPath>
    </defs>
</svg>
