<svg xmlns="http://www.w3.org/2000/svg" width="132" height="132" fill="none">
  <g clip-path="url(#a)">
    <path fill="#3F3D56" d="M93.072 112.155h-60.21a5.383 5.383 0 0 1-3.811-1.593 5.454 5.454 0 0 1-1.58-3.838V83.42a9.928 9.928 0 0 1-.39.422v22.882a5.85 5.85 0 0 0 1.695 4.115 5.768 5.768 0 0 0 4.087 1.708H93.24a13.902 13.902 0 0 1-.17-.392ZM27.47 26.019a5.46 5.46 0 0 1 1.58-3.838 5.38 5.38 0 0 1 3.813-1.593h20.06c-.036-.131-.071-.26-.104-.392H32.863a5.768 5.768 0 0 0-4.087 1.708 5.849 5.849 0 0 0-1.695 4.115v35.725c.134.137.263.279.39.422V26.019Zm80.845 4.58-12.58-10.033c-.3-.24-.672-.37-1.055-.37H83.485a9.144 9.144 0 0 1-.103.392H94.68c.295 0 .582.1.814.284l12.58 10.035a1.01 1.01 0 0 1 .381.796V90.1c.131.004.261.014.39.024v-58.42a1.414 1.414 0 0 0-.53-1.105Z"/>
    <path fill="#E6E6E6" d="M108.149 31.117h-10.15a2.777 2.777 0 0 1-1.977-.824 2.814 2.814 0 0 1-.818-1.989v-7.549a.176.176 0 0 1 .194-.174.175.175 0 0 1 .09.037l12.769 10.186a.171.171 0 0 1 .059.088.185.185 0 0 1-.002.107.175.175 0 0 1-.165.118Z"/>
    <path fill="#3F3D56" d="M108.149 31.313h-10.15a2.982 2.982 0 0 1-2.113-.882 3.023 3.023 0 0 1-.876-2.127v-7.549a.374.374 0 0 1 .208-.335.368.368 0 0 1 .39.044l12.77 10.186a.38.38 0 0 1 .126.188.38.38 0 0 1-.006.226.368.368 0 0 1-.349.25Zm-12.75-10.516v7.507c0 .694.275 1.36.762 1.85s1.148.766 1.837.767h10.093L95.399 20.797Z"/>
    <path fill="#CCC" d="M88 44.129H58.139c-.37 0-.726-.148-.988-.412a1.411 1.411 0 0 1 0-1.99c.262-.263.617-.412.988-.412h29.86c.371 0 .727.149.989.412a1.412 1.412 0 0 1 0 1.99 1.392 1.392 0 0 1-.988.412Zm5.762 4.747H58.14c-.37 0-.726-.148-.988-.412a1.412 1.412 0 0 1 0-1.989 1.39 1.39 0 0 1 .988-.412h35.623c.37 0 .726.148.988.412a1.412 1.412 0 0 1 0 1.99 1.392 1.392 0 0 1-.988.411ZM88 65.405H58.139c-.37 0-.726-.149-.988-.412a1.412 1.412 0 0 1 0-1.99 1.39 1.39 0 0 1 .988-.412h29.86c.371 0 .726.148.988.412a1.412 1.412 0 0 1 0 1.99 1.392 1.392 0 0 1-.987.412Zm5.762 4.747H58.14c-.37 0-.726-.148-.988-.412a1.412 1.412 0 0 1 0-1.99c.262-.263.617-.412.988-.412h35.623c.37 0 .726.149.988.412a1.412 1.412 0 0 1 0 1.99 1.392 1.392 0 0 1-.988.412ZM88 86.68H58.139a1.388 1.388 0 0 1-.988-.413 1.407 1.407 0 0 1-.41-.994 1.415 1.415 0 0 1 .41-.995 1.398 1.398 0 0 1 .988-.412h29.86c.371 0 .727.148.989.412a1.412 1.412 0 0 1 0 1.99 1.392 1.392 0 0 1-.988.412Zm5.762 4.747H58.14a1.39 1.39 0 0 1-1.291-.868 1.415 1.415 0 0 1 .303-1.533 1.396 1.396 0 0 1 .988-.412h35.623a1.388 1.388 0 0 1 .988.412 1.408 1.408 0 0 1 .303 1.533 1.407 1.407 0 0 1-.756.761 1.39 1.39 0 0 1-.535.108Z"/>
    <path fill="#6C63FF" d="M45.704 50.067c2.727 0 4.937-2.225 4.937-4.971s-2.21-4.972-4.937-4.972c-2.727 0-4.938 2.226-4.938 4.972 0 2.746 2.21 4.971 4.938 4.971Z"/>
    <path fill="#fff" d="M45.215 46.992a.51.51 0 0 1-.308-.103l-.006-.004-1.16-.894a.519.519 0 0 1 .627-.824l.752.58 1.776-2.333a.517.517 0 0 1 .723-.096l-.011.016.011-.016a.52.52 0 0 1 .095.728l-2.089 2.743a.517.517 0 0 1-.41.203Z"/>
    <path fill="#E6E6E6" d="M45.704 71.343c2.727 0 4.937-2.226 4.937-4.972 0-2.746-2.21-4.972-4.937-4.972-2.727 0-4.938 2.226-4.938 4.972 0 2.746 2.21 4.972 4.938 4.972Z"/>
    <path fill="#fff" d="M45.215 68.268a.51.51 0 0 1-.309-.103l-.005-.004-1.16-.894a.52.52 0 0 1 .246-.927.514.514 0 0 1 .381.103l.752.58 1.776-2.333a.517.517 0 0 1 .542-.186.516.516 0 0 1 .18.09l-.01.016.01-.016a.52.52 0 0 1 .096.728l-2.089 2.743a.516.516 0 0 1-.41.202v.001Z"/>
    <path fill="#E6E6E6" d="M45.704 92.618c2.727 0 4.937-2.226 4.937-4.971 0-2.746-2.21-4.972-4.937-4.972-2.727 0-4.938 2.226-4.938 4.972 0 2.745 2.21 4.971 4.938 4.971Z"/>
    <path fill="#fff" d="M45.215 89.543a.51.51 0 0 1-.308-.103l-.006-.004-1.16-.894a.52.52 0 0 1 .447-.914.515.515 0 0 1 .18.09l.752.58 1.776-2.333a.518.518 0 0 1 .542-.185.517.517 0 0 1 .18.09l-.01.015.011-.016a.52.52 0 0 1 .095.728l-2.089 2.743a.517.517 0 0 1-.41.203Z"/>
    <path fill="#6C63FF" d="M115.126 120.454a17.13 17.13 0 0 1-.85.416c-.263.119-.529.232-.8.336l-.3.115a16.08 16.08 0 0 1-5.515.973 16.022 16.022 0 0 1-7.314-1.763c-.1-.05-.201-.105-.302-.157-.149-.08-.294-.163-.44-.25a9.55 9.55 0 0 1 3.308-2.809 9.483 9.483 0 0 1 11.091 1.779 9.888 9.888 0 0 1 1.122 1.36Z"/>
    <path fill="#2F2E41" d="M108.02 112.503c4.359 0 7.892-3.558 7.892-7.947s-3.533-7.947-7.892-7.947-7.893 3.558-7.893 7.947 3.534 7.947 7.893 7.947Z"/>
    <path fill="#A0616A" d="M110.119 112.514c2.847-1.566 3.893-5.16 2.337-8.026-1.556-2.867-5.126-3.92-7.972-2.353-2.847 1.566-3.893 5.16-2.337 8.027 1.556 2.866 5.125 3.919 7.972 2.352Z"/>
    <path fill="#2F2E41" d="M113.474 103.604a7.945 7.945 0 0 1-4.566 1.421c.582.406 1.244.68 1.941.804a16 16 0 0 1-6.581.037 4.237 4.237 0 0 1-1.377-.476 1.743 1.743 0 0 1-.851-1.145c-.144-.831.499-1.585 1.167-2.094a8.569 8.569 0 0 1 3.451-1.546 8.54 8.54 0 0 1 3.777.092c.808.21 1.617.565 2.141 1.218.525.653.68 1.66.18 2.332l.718-.643Z"/>
    <path fill="#3F3D56" d="M108.845 89.759a15.273 15.273 0 0 0-1.184-.043c-2.653 0-5.265.657-7.606 1.913a16.215 16.215 0 0 0-5.82 5.289 16.393 16.393 0 0 0-1.388 15.63 16.374 16.374 0 0 0 6.395 7.363l.104.061c.087.053.173.104.259.151a10.655 10.655 0 0 0 .741.408 15.913 15.913 0 0 0 4.302 1.478 16.033 16.033 0 0 0 4.831.183 16.175 16.175 0 0 0 3.696-.871c.102-.039.203-.076.3-.116.273-.103.538-.215.801-.335a16.394 16.394 0 0 0 7.508-6.927c.008-.015.015-.029.024-.043a16.382 16.382 0 0 0 .085-15.646 16.241 16.241 0 0 0-5.445-5.929 16.094 16.094 0 0 0-7.603-2.566Zm14.355 19.235a15.902 15.902 0 0 1-1.688 4.694c-.014.025-.027.051-.041.074a15.896 15.896 0 0 1-8.426 7.218 15.342 15.342 0 0 1-3.718.863c-.332.037-.669.062-1.01.074a15.583 15.583 0 0 1-3.571-.259 14.99 14.99 0 0 1-1.732-.427 15.805 15.805 0 0 1-2.514-1.026c-.093-.049-.187-.098-.278-.149a9.036 9.036 0 0 1-.393-.219c-.098-.055-.195-.114-.29-.171a15.998 15.998 0 0 1-6.467-7.511 16.027 16.027 0 0 1 1.421-14.973 15.855 15.855 0 0 1 5.699-5.215 15.731 15.731 0 0 1 8.653-1.843c2.222.17 4.383.81 6.342 1.878a15.854 15.854 0 0 1 5.028 4.323 15.984 15.984 0 0 1 2.836 6.013c.514 2.184.565 4.452.149 6.656Z"/>
    <path fill="#2F2E41" d="M104.023 96.72c-.085-.9-1.179-1.454-2.034-1.182-.856.272-1.417 1.139-1.587 2.026a2.935 2.935 0 0 0 .389 2.194c.433.626 1.227 1.017 1.968.858.846-.181 1.433-1.013 1.6-1.867.168-.855.001-1.736-.165-2.59l-.171.56Zm12.04 1.283c-.085-.899-1.179-1.452-2.035-1.18-.855.27-1.417 1.138-1.586 2.025a2.916 2.916 0 0 0 .389 2.194c.432.627 1.227 1.018 1.968.859.846-.182 1.432-1.014 1.6-1.868.168-.855.001-1.736-.165-2.59l-.171.56Z"/>
    <path fill="#6C63FF" d="M76.78 29.852a15.93 15.93 0 0 1-8.378 2.543 15.935 15.935 0 0 1-8.455-2.273 9.794 9.794 0 0 1 1.69-2.29 9.596 9.596 0 0 1 3.684-2.323 9.543 9.543 0 0 1 8.401 1.066 9.643 9.643 0 0 1 2.997 3.17l.061.107Z"/>
    <path fill="#2F2E41" d="M67.66 21.196c4.389 0 7.946-3.581 7.946-8 0-4.418-3.557-8-7.945-8s-7.945 3.582-7.945 8c0 4.419 3.557 8 7.945 8Z"/>
    <path fill="#FFB8B8" d="M72.794 18.84c1.566-2.886.513-6.504-2.353-8.08-2.865-1.578-6.458-.518-8.025 2.368-1.566 2.885-.513 6.503 2.353 8.08 2.865 1.577 6.458.517 8.025-2.368Z"/>
    <path fill="#2F2E41" d="M62.17 12.239a8.004 8.004 0 0 0 4.597 1.43 4.91 4.91 0 0 1-1.954.81c2.182.47 4.437.483 6.624.037a4.27 4.27 0 0 0 1.387-.48 1.759 1.759 0 0 0 .856-1.153c.145-.836-.502-1.595-1.174-2.107a8.602 8.602 0 0 0-7.277-1.464c-.813.211-1.627.569-2.155 1.226-.528.657-.684 1.67-.181 2.348l-.723-.647Z"/>
    <path fill="#3F3D56" d="M68.147 0a16.14 16.14 0 0 0-11.433 4.776 16.365 16.365 0 0 0-4.745 11.512 16.245 16.245 0 0 0 .58 4.3 16.277 16.277 0 0 0 5.785 8.652 16.087 16.087 0 0 0 9.813 3.338c3.547 0 6.996-1.174 9.816-3.34a16.3 16.3 0 0 0 5.892-9.042c.586-2.4.623-4.902.108-7.318a16.35 16.35 0 0 0-3.082-6.628 16.21 16.21 0 0 0-5.652-4.602A16.096 16.096 0 0 0 68.147 0Zm15.337 20.196a15.967 15.967 0 0 1-3.572 6.74 15.826 15.826 0 0 1-5.902 4.144 15.727 15.727 0 0 1-13.971-1.114 16.028 16.028 0 0 1-7.71-13.678 16.02 16.02 0 0 1 1.404-6.542 15.92 15.92 0 0 1 3.95-5.383 15.789 15.789 0 0 1 5.797-3.275 15.714 15.714 0 0 1 12.898 1.618A15.863 15.863 0 0 1 81.2 7.312a15.988 15.988 0 0 1 2.517 6.195 16.033 16.033 0 0 1-.233 6.689Z"/>
    <path fill="#6C63FF" d="M24.326 86.347a15.93 15.93 0 0 1-8.379 2.543c-2.973.048-5.9-.739-8.454-2.272.027-.053.056-.106.087-.157a9.646 9.646 0 0 1 3.462-3.605 9.56 9.56 0 0 1 9.618-.155 9.641 9.641 0 0 1 3.574 3.491c.012.016.021.034.031.05.02.032.041.07.06.105Z"/>
    <path fill="#2F2E41" d="M23.151 69.693a8.04 8.04 0 0 1-1.339 4.444 7.956 7.956 0 0 1-3.565 2.947 7.894 7.894 0 0 1-4.59.455 7.928 7.928 0 0 1-4.069-2.19 8.017 8.017 0 0 1-2.174-4.096 8.051 8.051 0 0 1 .452-4.622 7.988 7.988 0 0 1 2.926-3.59 7.906 7.906 0 0 1 4.414-1.348 7.858 7.858 0 0 1 3.047.599c.966.4 1.844.989 2.582 1.733a7.964 7.964 0 0 1 1.722 2.6c.397.973.6 2.016.594 3.068Z"/>
    <path fill="#A0616A" d="M21.432 74.663a5.922 5.922 0 0 1-3.839 3.53 5.878 5.878 0 0 1-4.5-.489 5.924 5.924 0 0 1-1.771-1.49 5.968 5.968 0 0 1-1.275-4.374 5.983 5.983 0 0 1 .69-2.218 5.943 5.943 0 0 1 1.481-1.782 5.898 5.898 0 0 1 4.346-1.281 5.86 5.86 0 0 1 2.202.697 5.944 5.944 0 0 1 2.723 3.196 5.995 5.995 0 0 1-.057 4.211Z"/>
    <path fill="#3F3D56" d="M27.47 61.635a16.137 16.137 0 0 0-8.252-4.73 16.064 16.064 0 0 0-8.943.553 16.172 16.172 0 0 0-7.277 5.264 16.377 16.377 0 0 0-1.814 17.241 16.24 16.24 0 0 0 6.02 6.682 16.084 16.084 0 0 0 8.63 2.428 16.088 16.088 0 0 0 8.589-2.572 16.31 16.31 0 0 0 3.047-2.545 16.337 16.337 0 0 0 4.4-11.16c0-4.15-1.574-8.142-4.4-11.162Zm-.39 22.207a15.895 15.895 0 0 1-2.846 2.35c-.002.003-.004.003-.006.005a15.748 15.748 0 0 1-16.644.267l-.004-.002a15.86 15.86 0 0 1-4.89-4.595 15.985 15.985 0 0 1-2.567-6.219 16.033 16.033 0 0 1 .215-6.73 15.97 15.97 0 0 1 2.959-6.04 15.84 15.84 0 0 1 5.173-4.269 15.73 15.73 0 0 1 13.06-.622 15.81 15.81 0 0 1 5.94 4.179 15.982 15.982 0 0 1 4.039 10.627 15.982 15.982 0 0 1-4.428 11.049Z"/>
    <path fill="#2F2E41" d="M21.645 63.05a4.196 4.196 0 0 0-1.64-1.581 4.16 4.16 0 0 0-2.217-.486c-.808.06-1.577.36-2.331.657l-3.838 1.507c-.992.39-2.08.868-2.51 1.85-.4.91-.102 1.962.2 2.91l1.435 4.509c.197-1.013.397-2.035.814-2.978.417-.943 1.076-1.812 1.988-2.283.997-.515 2.172-.504 3.29-.45 1.585.077 3.308.28 4.434 1.405a4.648 4.648 0 0 1 1.169 2.298c.163.858.245 1.728.245 2.601a21.637 21.637 0 0 0 1.635-3.53c.36-.912.566-1.878.608-2.858.008-.979-.267-1.989-.915-2.718-.648-.73-1.705-1.123-2.634-.835"/>
    <path fill="#E6E6E6" d="m9.546 41.537-.39-.005c.005-.392.016-.79.034-1.182l.389.017a36.05 36.05 0 0 0-.033 1.17Z"/>
    <path fill="#072EF5" d="m9.75 38.128-.387-.043c.081-.75.188-1.505.316-2.247l.384.068a35.25 35.25 0 0 0-.313 2.222Zm.768-4.419-.379-.092a35.18 35.18 0 0 1 .602-2.187l.372.116c-.221.711-.421 1.44-.595 2.163Zm1.328-4.285-.363-.14c.269-.704.564-1.408.878-2.093l.354.165c-.31.677-.603 1.373-.869 2.068Zm1.868-4.076-.342-.187c.356-.663.74-1.322 1.138-1.96l.33.208a35.09 35.09 0 0 0-1.126 1.939Zm2.373-3.8-.316-.23a35.32 35.32 0 0 1 1.378-1.797l.3.25a35.53 35.53 0 0 0-1.362 1.776Zm2.835-3.463-.284-.268a34.97 34.97 0 0 1 1.594-1.605l.266.286c-.54.51-1.07 1.044-1.576 1.587Zm3.25-3.07-.248-.302a36.062 36.062 0 0 1 1.784-1.386l.228.318c-.6.436-1.193.897-1.764 1.37Zm3.611-2.625-.207-.332a35.13 35.13 0 0 1 1.945-1.145l.186.345a35.35 35.35 0 0 0-1.924 1.132Zm3.915-2.137-.163-.356a34.94 34.94 0 0 1 2.074-.883l.14.366c-.69.268-1.38.561-2.051.873Zm4.153-1.61-.117-.375a34.738 34.738 0 0 1 2.172-.607l.092.381a34.39 34.39 0 0 0-2.147.6Zm4.329-1.06-.067-.385c.736-.13 1.487-.238 2.231-.32l.042.39c-.736.081-1.478.187-2.206.316Z"/>
    <path fill="#E6E6E6" d="m42.624 7.094-.018-.391c.39-.018.785-.03 1.175-.034l.004.392a37.49 37.49 0 0 0-1.161.033Z"/>
    <path fill="#072EF5" d="m10.984 40.277-.278-.275-1.342 1.383-1.272-1.45-.292.26 1.55 1.765 1.634-1.683ZM42.533 8.51l-.272-.28 1.373-1.352-1.44-1.28.259-.295 1.752 1.56-1.672 1.646Z"/>
    <path fill="#E6E6E6" d="M100.799 10.972a58.1 58.1 0 0 0-1.036-.536l.174-.35c.351.176.699.356 1.044.538l-.182.348Z"/>
    <path fill="#072EF5" d="m127.264 83.348-.36-.149c.293-.72.574-1.454.837-2.183l.366.134a57.489 57.489 0 0 1-.843 2.198Zm1.597-4.428-.371-.12c.233-.74.454-1.495.657-2.244l.376.103a57.474 57.474 0 0 1-.662 2.26Zm1.231-4.546-.379-.088c.172-.758.331-1.529.472-2.291l.383.071a57.24 57.24 0 0 1-.476 2.308Zm.856-4.633-.385-.056c.109-.769.204-1.55.283-2.323l.387.04a57.486 57.486 0 0 1-.285 2.34Zm.474-4.688-.389-.024a58.82 58.82 0 0 0 .092-2.339l.39.008a57.777 57.777 0 0 1-.093 2.355Zm.089-4.712-.389.009a57.936 57.936 0 0 0-.099-2.34l.388-.024a53.511 53.511 0 0 1 .1 2.355Zm-.682-4.662a60.177 60.177 0 0 0-.289-2.322l.385-.056c.113.773.21 1.56.291 2.337l-.387.041Zm-.671-4.63a59.861 59.861 0 0 0-.476-2.291l.379-.088c.175.762.336 1.538.479 2.306l-.382.073Zm-1.044-4.561a59.546 59.546 0 0 0-.659-2.245l.371-.119c.235.745.458 1.506.663 2.26l-.375.104Zm-1.409-4.46a58.424 58.424 0 0 0-.839-2.185l.361-.149c.295.724.579 1.464.844 2.2l-.366.133Zm-1.765-4.333a56.537 56.537 0 0 0-1.012-2.108l.347-.178c.352.697.695 1.412 1.019 2.123l-.354.163Zm-2.109-4.173a58.243 58.243 0 0 0-1.18-2.018l.332-.206c.407.666.807 1.35 1.188 2.032l-.34.192Zm-2.441-3.986a58.238 58.238 0 0 0-1.34-1.915l.313-.232c.461.63.915 1.279 1.35 1.928l-.323.219Zm-2.758-3.773a56.5 56.5 0 0 0-1.492-1.797l.293-.258a57.08 57.08 0 0 1 1.503 1.81l-.304.245Zm-3.057-3.532a57.965 57.965 0 0 0-1.635-1.668l.271-.28a57.23 57.23 0 0 1 1.647 1.679l-.283.27Zm-3.337-3.267a56.084 56.084 0 0 0-1.767-1.526l.248-.303c.6.497 1.199 1.015 1.778 1.537l-.259.293Zm-3.595-2.979a56.716 56.716 0 0 0-1.883-1.373l.222-.323c.64.447 1.278.912 1.896 1.383l-.235.313Zm-3.82-2.668a56.494 56.494 0 0 0-1.988-1.213l.196-.34c.673.393 1.347.804 2.001 1.222l-.209.331Z"/>
    <path fill="#E6E6E6" d="m125.833 86.581-.351-.17c.169-.353.334-.707.495-1.061l.355.163c-.163.357-.329.713-.499 1.068Z"/>
    <path fill="#072EF5" d="m100.251 12.292.367-.13-.64-1.823 1.853-.51-.103-.378-2.256.62.779 2.221Zm24.491 72.349.37-.122.599 1.837 1.777-.736.147.363-2.163.896-.73-2.238Z"/>
  </g>
  <defs>
    <clipPath id="a">
      <path fill="#fff" d="M0 0h132v132H0z"/>
    </clipPath>
  </defs>
</svg>
