<svg xmlns="http://www.w3.org/2000/svg" width="456" height="227" fill="none">
  <g clip-path="url(#a)">
    <path fill="#fff" d="M176.212 187.589c46.779 0 84.701-37.855 84.701-84.552 0-46.697-37.922-84.552-84.701-84.552-46.778 0-84.7 37.855-84.7 84.552 0 46.697 37.922 84.552 84.7 84.552Z"/>
    <path fill="#3F3D56" d="M90.882 103.037c0-46.969 38.279-85.181 85.331-85.181 47.051 0 85.33 38.212 85.33 85.181 0 46.969-38.279 85.181-85.33 85.181-47.052 0-85.331-38.212-85.331-85.181Zm1.26 0c0 46.275 37.714 83.923 84.071 83.923 46.356 0 84.07-37.648 84.07-83.923s-37.714-83.923-84.07-83.923c-46.357 0-84.071 37.648-84.071 83.923Z"/>
    <path fill="#3F3D56" d="M161.114 103.405c0-2.981.885-5.895 2.544-8.374a15.092 15.092 0 0 1 6.776-5.551 15.126 15.126 0 0 1 16.455 3.267 15.065 15.065 0 0 1 4.132 7.717 15.044 15.044 0 0 1-.859 8.709 15.078 15.078 0 0 1-5.561 6.764 15.119 15.119 0 0 1-19.065-1.874 15.059 15.059 0 0 1-4.422-10.658Zm15.098-14.337a14.393 14.393 0 0 0-10.151 4.204 14.341 14.341 0 0 0-4.211 10.133c0 2.836.842 5.607 2.421 7.965a14.355 14.355 0 0 0 6.445 5.281 14.38 14.38 0 0 0 15.652-3.108 14.316 14.316 0 0 0 3.113-15.625 14.347 14.347 0 0 0-5.289-6.434 14.382 14.382 0 0 0-7.98-2.416Z"/>
    <path fill="#CCC" d="M147.488 103.405a28.633 28.633 0 0 1 4.841-15.93 28.71 28.71 0 0 1 12.891-10.562 28.77 28.77 0 0 1 31.304 6.216 28.657 28.657 0 0 1 7.861 14.682 28.624 28.624 0 0 1-1.635 16.567 28.687 28.687 0 0 1-10.579 12.869 28.766 28.766 0 0 1-36.27-3.567 28.642 28.642 0 0 1-8.413-20.275Zm28.724-27.94a28.024 28.024 0 0 0-15.549 4.71 27.944 27.944 0 0 0-10.308 12.538 27.887 27.887 0 0 0-1.593 16.142 27.93 27.93 0 0 0 7.66 14.306 28.004 28.004 0 0 0 14.33 7.646 28.032 28.032 0 0 0 16.171-1.59 27.988 27.988 0 0 0 12.561-10.29 27.907 27.907 0 0 0 4.716-15.522 27.943 27.943 0 0 0-8.206-19.747 28.045 28.045 0 0 0-19.782-8.192Z"/>
    <path fill="#CCC" d="M120.236 103.405a55.807 55.807 0 0 1 9.434-31.044 55.957 55.957 0 0 1 25.121-20.58 56.07 56.07 0 0 1 32.342-3.18 56.01 56.01 0 0 1 28.661 15.292 55.851 55.851 0 0 1 15.319 28.61 55.79 55.79 0 0 1-3.185 32.285 55.902 55.902 0 0 1-20.617 25.078 56.043 56.043 0 0 1-31.098 9.417 56.09 56.09 0 0 1-39.563-16.385 55.89 55.89 0 0 1-16.414-39.493Zm55.977-55.143a55.308 55.308 0 0 0-30.69 9.293 55.164 55.164 0 0 0-20.345 24.748 55.057 55.057 0 0 0-3.144 31.86 55.123 55.123 0 0 0 15.118 28.234 55.272 55.272 0 0 0 28.284 15.091 55.325 55.325 0 0 0 31.916-3.138 55.215 55.215 0 0 0 24.791-20.309 55.083 55.083 0 0 0 9.309-30.636 55.157 55.157 0 0 0-16.197-38.974 55.353 55.353 0 0 0-39.042-16.169Z"/>
    <path fill="#6C63FF" d="M176.212 110.022c3.865 0 6.997-3.127 6.997-6.985 0-3.858-3.132-6.985-6.997-6.985-3.864 0-6.997 3.127-6.997 6.985 0 3.858 3.133 6.985 6.997 6.985Zm-18.045 20.219c3.865 0 6.997-3.127 6.997-6.985 0-3.857-3.132-6.985-6.997-6.985-3.864 0-6.997 3.128-6.997 6.985 0 3.858 3.133 6.985 6.997 6.985Zm70.4-2.941c3.864 0 6.997-3.127 6.997-6.985 0-3.857-3.133-6.984-6.997-6.984-3.865 0-6.997 3.127-6.997 6.984 0 3.858 3.132 6.985 6.997 6.985Z"/>
    <path fill="#2F2E41" d="M176.212 106.346a3.312 3.312 0 0 0 3.315-3.309 3.312 3.312 0 0 0-3.315-3.309 3.312 3.312 0 0 0-3.314 3.309 3.312 3.312 0 0 0 3.314 3.309Zm52.355 17.278a3.311 3.311 0 0 0 3.314-3.309 3.311 3.311 0 0 0-3.314-3.308 3.311 3.311 0 0 0-3.315 3.308 3.312 3.312 0 0 0 3.315 3.309Zm-70.4 3.309a3.312 3.312 0 0 0 3.315-3.309 3.312 3.312 0 0 0-3.315-3.309 3.312 3.312 0 0 0-3.314 3.309 3.312 3.312 0 0 0 3.314 3.309Z"/>
    <path fill="#6C63FF" d="M21.541 69.216a3.311 3.311 0 0 0 3.315-3.308 3.311 3.311 0 0 0-3.315-3.309 3.311 3.311 0 0 0-3.314 3.309 3.311 3.311 0 0 0 3.314 3.308Z"/>
    <path fill="#2F2E41" d="M176.028 66.092H30.564v-.736h146.201v37.865h-.737v-37.13Z"/>
    <path fill="#2F2E41" d="M11.967 65.908c0-1.89.561-3.739 1.613-5.31a9.571 9.571 0 0 1 4.297-3.52 9.59 9.59 0 0 1 10.435 2.071 9.553 9.553 0 0 1 2.075 10.416 9.562 9.562 0 0 1-3.526 4.29 9.587 9.587 0 0 1-12.09-1.189 9.556 9.556 0 0 1-2.804-6.758Zm9.574-8.823a8.85 8.85 0 0 0-4.91 1.487 8.826 8.826 0 0 0-3.255 3.96 8.808 8.808 0 0 0 1.916 9.614 8.843 8.843 0 0 0 9.632 1.913 8.835 8.835 0 0 0 3.966-3.25 8.812 8.812 0 0 0 1.49-4.901 8.825 8.825 0 0 0-2.592-6.236 8.856 8.856 0 0 0-6.247-2.587Z"/>
    <path fill="#6C63FF" d="M43.637 164.43a3.312 3.312 0 0 0 3.315-3.309 3.312 3.312 0 0 0-3.315-3.309 3.312 3.312 0 0 0-3.314 3.309 3.312 3.312 0 0 0 3.314 3.309Z"/>
    <path fill="#2F2E41" d="M34.063 161.121c0-1.89.561-3.738 1.613-5.31a9.584 9.584 0 0 1 14.732-1.449 9.545 9.545 0 0 1-1.45 14.706 9.585 9.585 0 0 1-12.09-1.188 9.552 9.552 0 0 1-2.805-6.759Zm9.574-8.823a8.832 8.832 0 0 0-8.166 5.447 8.807 8.807 0 0 0 1.917 9.615 8.846 8.846 0 0 0 13.598-1.337 8.814 8.814 0 0 0 1.49-4.902 8.826 8.826 0 0 0-2.592-6.236 8.858 8.858 0 0 0-6.247-2.587Z"/>
    <path fill="#6C63FF" d="M331.312 84.656a3.312 3.312 0 0 0 3.315-3.308 3.312 3.312 0 0 0-3.315-3.309 3.311 3.311 0 0 0-3.314 3.309 3.311 3.311 0 0 0 3.314 3.308Z"/>
    <path fill="#2F2E41" d="M321.737 81.348c0-1.89.562-3.739 1.614-5.31a9.569 9.569 0 0 1 4.297-3.52 9.591 9.591 0 0 1 10.435 2.071 9.55 9.55 0 0 1-1.451 14.706 9.588 9.588 0 0 1-12.09-1.189 9.557 9.557 0 0 1-2.805-6.758Zm9.575-8.823a8.858 8.858 0 0 0-6.247 2.587 8.83 8.83 0 0 0-2.591 6.236 8.81 8.81 0 0 0 1.489 4.901 8.84 8.84 0 0 0 9.074 3.752 8.844 8.844 0 0 0 4.525-2.415 8.808 8.808 0 0 0 1.916-9.615 8.829 8.829 0 0 0-3.255-3.96 8.853 8.853 0 0 0-4.911-1.486Z"/>
    <path fill="#2F2E41" d="M228.198 82.456 322.1 80.98l.011.735-93.176 1.465v37.135h-.737V82.456ZM52.844 160.753H157.8v-37.129h.737v37.864H52.844v-.735Z"/>
    <path fill="#CCC" d="M41.796 83.186H1.287v2.573h40.51v-2.573Zm0 7.352H1.287v2.573h40.51v-2.573Zm0 7.352H1.287v2.574h40.51v-2.573Zm22.096 80.509h-40.51v2.573h40.51v-2.573Zm0 7.352h-40.51v2.574h40.51v-2.574Zm0 7.353h-40.51v2.573h40.51v-2.573Zm287.675-94.111h-40.509v2.573h40.509v-2.573Zm0 7.353h-40.509v2.573h40.509v-2.573Zm0 7.352h-40.509v2.574h40.509v-2.574Z"/>
    <path fill="#FFB8B8" d="m430.851 198.243-5.76 2.055-10.683-21.204 8.502-3.033 7.941 22.182Z"/>
    <path fill="#2F2E41" d="m415.741 209.92-.084-.234a7.662 7.662 0 0 1 .294-5.858 7.684 7.684 0 0 1 4.352-3.94l11.346-4.047 2.668 7.452-18.576 6.627Z"/>
    <path fill="#FFB8B8" d="m393.389 203.931-6.117-.001-2.911-23.556 9.029.001-.001 23.556Z"/>
    <path fill="#2F2E41" d="m394.95 209.851-19.727-.001v-.249a7.649 7.649 0 0 1 2.249-5.42 7.693 7.693 0 0 1 5.429-2.244h12.049v7.914Z"/>
    <path fill="#6C63FF" d="m407.332 53.438-2.661-5.248s-9.911 2.478-10.812 8.213l13.473-2.965Z"/>
    <path fill="#2F2E41" d="m418.31 113.446-7.235 40.306 19.212 33.917-11.478 4.483-19.461-32.877-2.495-8.967-1.497 46.826-10.351-.314-4.746-43.724 7.612-40.646 30.439.996Z"/>
    <path fill="#3F3D56" d="M383.752 120.717c-.225-.998-.869-31.47-.869-31.47s10.642-34.873 10.739-35.16l.038-.112 8.08-3.024c.113-.051 2.805-1.248 5.008-.25a4.308 4.308 0 0 1 2.296 2.816c.916.682 7.52 8.066 7.52 18.083l.249 23.636 5.537 25.624-.245.052c-.151.033-6.9 2.062-17.53 2.062-5.906 0-20.823-2.257-20.823-2.257Z"/>
    <path fill="#FFB8B8" d="M396.408 46.537c6.031 0 10.92-4.88 10.92-10.9 0-6.02-4.889-10.901-10.92-10.901s-10.92 4.88-10.92 10.9c0 6.02 4.889 10.901 10.92 10.901Z"/>
    <path fill="#000" d="m411.965 83.66-19.104 26.609-2.822-12.426 21.926-14.183Z" opacity=".2"/>
    <path fill="#FFB8B8" d="M378.058 110.843a4.683 4.683 0 0 0 3.523-1.816 4.667 4.667 0 0 0 .868-3.862l14.195-8.692-7.838-3.661-12.279 8.815a4.712 4.712 0 0 0-2.673 2.011 4.699 4.699 0 0 0 1.023 6.163 4.72 4.72 0 0 0 3.181 1.042Z"/>
    <path fill="#6C63FF" d="m387.87 93.022-4.861 3.401 4.123 7.309L392.861 99l-4.991-5.978Z"/>
    <path fill="#3F3D56" d="m385.325 93.237 11.436-13.232-4.381-18.252a7.971 7.971 0 0 1 .704-5.587 7.99 7.99 0 0 1 4.223-3.735 8.013 8.013 0 0 1 5.642-.023 7.995 7.995 0 0 1 4.254 3.698l.099.185 4.038 27.103-20.287 20.758-5.728-10.915Z"/>
    <path fill="#2F2E41" d="m405.709 45.1-9.064.325c-.552.02-2.051-5.932-2.248-7.167a3.368 3.368 0 0 0-1.246-2.025 3.38 3.38 0 0 0-2.275-.7c-.679.063-2.39-1.202-4.155-2.7-3.352-2.845-3.177-8.187.505-10.59.1-.066.199-.127.296-.18 2.323-1.298 5.04-1.734 7.701-1.767 2.413-.03 4.894.273 7.02 1.413 3.811 2.043 5.839 6.51 6.017 10.824.178 4.315-1.208 8.534-2.78 12.557"/>
    <path fill="#3F3D56" d="M455.501 210H345.219a.495.495 0 0 1-.499-.498.495.495 0 0 1 .499-.498h110.282a.499.499 0 1 1 0 .996Z"/>
  </g>
  <defs>
    <clipPath id="a">
      <path fill="#fff" d="M0 0h456v227H0z"/>
    </clipPath>
  </defs>
</svg>
